<svg width="950" height="369" viewBox="0 0 950 369" fill="none" xmlns="http://www.w3.org/2000/svg">
<g clip-path="url(#clip0_5806_109925)">
<rect width="950" height="369" rx="30" fill="url(#paint0_linear_5806_109925)"/>
<path d="M585.055 93.12H579.985V67.5H585.055V93.12ZM576.595 91.92H561.415V68.1H576.595V91.92ZM571.525 87.18V72.84H566.485V87.18H571.525ZM615.993 71.76V76.68H612.993V81.6H607.923V67.5H612.993V71.76H615.993ZM606.723 79.68C606.063 79.96 605.183 80.18 604.083 80.34C602.983 80.5 601.823 80.58 600.603 80.58H589.503V67.8H605.253V71.97H594.573V76.44H600.813C601.993 76.44 603.103 76.37 604.143 76.23C605.203 76.07 606.063 75.86 606.723 75.6V79.68ZM601.683 81.96C605.183 81.96 607.983 82.42 610.083 83.34C612.183 84.24 613.233 85.69 613.233 87.69C613.233 89.69 612.183 91.14 610.083 92.04C607.983 92.96 605.183 93.42 601.683 93.42C598.183 93.42 595.383 92.96 593.283 92.04C591.183 91.14 590.133 89.69 590.133 87.69C590.133 85.69 591.183 84.24 593.283 83.34C595.383 82.42 598.183 81.96 601.683 81.96ZM601.683 89.37C603.523 89.37 604.993 89.24 606.093 88.98C607.213 88.7 607.773 88.27 607.773 87.69C607.773 87.13 607.213 86.71 606.093 86.43C604.973 86.15 603.503 86.01 601.683 86.01C599.863 86.01 598.393 86.15 597.273 86.43C596.153 86.71 595.593 87.13 595.593 87.69C595.593 88.27 596.143 88.7 597.243 88.98C598.363 89.24 599.843 89.37 601.683 89.37ZM642.49 67.5V82.44H637.42V76.86H634.06V73.5H629.05C628.89 74.14 628.75 74.61 628.63 74.91L635.53 78.63L633.25 82.35L626.41 78.57C625.35 79.73 624.1 80.66 622.66 81.36C621.24 82.06 619.7 82.43 618.04 82.47V78.21C619.48 78.09 620.71 77.59 621.73 76.71C622.77 75.83 623.48 74.76 623.86 73.5H618.34V69.42H623.98V67.05H629.14V69.42H634.78V72.36H637.42V67.5H642.49ZM619.57 83.34H642.49V93.12H619.57V83.34ZM624.61 89.16H637.45V87.3H624.61V89.16ZM679.297 67.5V93.12H674.227V67.5H679.297ZM666.127 87.18C667.407 87.18 668.637 87.1 669.817 86.94C671.017 86.76 671.997 86.5 672.757 86.16V90.9C671.997 91.24 671.027 91.49 669.847 91.65C668.667 91.83 667.397 91.92 666.037 91.92H654.457V87.18H660.757V82.89H655.627V68.25H670.837V72.9H660.637V78.24H671.137V82.89H665.797V87.18H666.127ZM708.015 67.5V93.12H702.945V81.9H699.555C699.335 85.36 698.535 87.95 697.155 89.67C695.795 91.37 693.975 92.22 691.695 92.22C689.215 92.22 687.265 91.21 685.845 89.19C684.445 87.15 683.745 84.09 683.745 80.01C683.745 75.93 684.445 72.88 685.845 70.86C687.265 68.82 689.215 67.8 691.695 67.8C693.855 67.8 695.615 68.58 696.975 70.14C698.335 71.68 699.175 74.02 699.495 77.16H702.945V67.5H708.015ZM691.695 87.57C693.635 87.57 694.605 85.05 694.605 80.01C694.605 74.97 693.635 72.45 691.695 72.45C689.735 72.45 688.755 74.97 688.755 80.01C688.755 85.05 689.735 87.57 691.695 87.57ZM737.693 87.51V92.22H711.773V87.51H722.183V83.28H713.183V68.1H736.283V72.81H718.373V78.6H736.583V83.28H727.343V87.51H737.693ZM767.809 86.55H763.249V67.56H767.809V73.5H769.519V67.5H774.139V87H769.519V77.85H767.809V86.55ZM756.889 72H749.329V67.83H761.539V77.55H756.889V72ZM762.229 82.62C760.829 83.22 758.829 83.52 756.229 83.52H748.639V79.32H750.739V74.16H755.359V79.32H756.319C757.399 79.32 758.479 79.24 759.559 79.08C760.639 78.92 761.529 78.7 762.229 78.42V82.62ZM774.439 88.77V93.12H750.709V85.11H755.869V88.77H774.439ZM785.877 78.24C784.837 79.32 783.607 80.19 782.187 80.85C780.787 81.49 779.257 81.83 777.597 81.87V77.64C778.917 77.5 780.087 77.04 781.107 76.26C782.127 75.46 782.857 74.5 783.297 73.38H777.897V69.33H783.537V67.05H788.697V69.33H794.337V73.38H788.577C788.517 73.66 788.387 74.08 788.187 74.64L794.667 77.88L792.477 81.63L785.877 78.24ZM804.357 71.97V76.59H801.357V80.76H796.287V67.5H801.357V71.97H804.357ZM797.967 83.01H802.287V86.28H788.607V83.01H792.987V81.57H797.967V83.01ZM783.597 89.22H788.607V93.12H778.707V83.01H783.597V89.22ZM795.477 86.79C797.317 86.79 798.797 87.09 799.917 87.69C801.037 88.27 801.597 89.11 801.597 90.21C801.597 91.31 801.037 92.15 799.917 92.73C798.797 93.33 797.317 93.63 795.477 93.63C793.637 93.63 792.157 93.33 791.037 92.73C789.917 92.15 789.357 91.31 789.357 90.21C789.357 89.11 789.917 88.27 791.037 87.69C792.157 87.09 793.637 86.79 795.477 86.79ZM795.477 90.81C796.057 90.81 796.527 90.75 796.887 90.63C797.247 90.53 797.427 90.39 797.427 90.21C797.427 90.03 797.247 89.89 796.887 89.79C796.527 89.67 796.057 89.61 795.477 89.61C794.897 89.61 794.427 89.67 794.067 89.79C793.707 89.89 793.527 90.03 793.527 90.21C793.527 90.39 793.707 90.53 794.067 90.63C794.427 90.75 794.897 90.81 795.477 90.81ZM833.015 81.78H830.015V93.12H824.945V67.5H830.015V76.86H833.015V81.78ZM814.385 67.8C816.865 67.8 818.805 68.82 820.205 70.86C821.605 72.88 822.305 75.93 822.305 80.01C822.305 84.09 821.605 87.15 820.205 89.19C818.805 91.21 816.865 92.22 814.385 92.22C811.905 92.22 809.955 91.21 808.535 89.19C807.135 87.15 806.435 84.09 806.435 80.01C806.435 75.93 807.135 72.88 808.535 70.86C809.955 68.82 811.905 67.8 814.385 67.8ZM814.385 87.57C816.325 87.57 817.295 85.05 817.295 80.01C817.295 74.97 816.325 72.45 814.385 72.45C812.425 72.45 811.445 74.97 811.445 80.01C811.445 85.05 812.425 87.57 814.385 87.57ZM860.533 87.57V92.22H834.613V87.57H839.623V82.02C838.343 81.3 837.353 80.4 836.653 79.32C835.953 78.22 835.603 77.01 835.603 75.69C835.603 74.09 836.093 72.68 837.073 71.46C838.073 70.22 839.483 69.26 841.303 68.58C843.123 67.88 845.213 67.53 847.573 67.53C849.933 67.53 852.023 67.88 853.843 68.58C855.663 69.26 857.063 70.22 858.043 71.46C859.043 72.68 859.543 74.09 859.543 75.69C859.543 77.01 859.193 78.22 858.493 79.32C857.793 80.4 856.803 81.3 855.523 82.02V87.57H860.533ZM847.573 72.09C845.613 72.09 844.023 72.42 842.803 73.08C841.583 73.74 840.973 74.61 840.973 75.69C840.973 76.39 841.253 77.02 841.813 77.58C842.373 78.12 843.153 78.54 844.153 78.84C845.153 79.14 846.293 79.29 847.573 79.29C848.853 79.29 849.993 79.14 850.993 78.84C851.993 78.54 852.773 78.12 853.333 77.58C853.893 77.02 854.173 76.39 854.173 75.69C854.173 74.61 853.563 73.74 852.343 73.08C851.123 72.42 849.533 72.09 847.573 72.09ZM844.693 87.57H850.453V83.64C849.553 83.76 848.593 83.82 847.573 83.82C846.553 83.82 845.593 83.76 844.693 83.64V87.57Z" fill="white"/>
<path d="M669.87 124.05V132.1H664.87V141H656.42V117.5H664.87V124.05H669.87ZM639.97 133.7C638.236 135.767 636.086 137.45 633.52 138.75C630.986 140.017 628.236 140.683 625.27 140.75V133.35C627.036 133.25 628.62 132.8 630.02 132C631.453 131.2 632.603 130.183 633.47 128.95C634.37 127.717 634.97 126.4 635.27 125H625.87V118H653.07V125H643.82C643.786 125.533 643.636 126.333 643.37 127.4L654.57 133.6L650.62 139.85L639.97 133.7ZM646.02 141.6C651.853 141.6 656.52 142.367 660.02 143.9C663.52 145.4 665.27 147.817 665.27 151.15C665.27 154.483 663.52 156.9 660.02 158.4C656.52 159.933 651.853 160.7 646.02 160.7C640.186 160.7 635.52 159.933 632.02 158.4C628.52 156.9 626.77 154.483 626.77 151.15C626.77 147.817 628.52 145.4 632.02 143.9C635.52 142.367 640.186 141.6 646.02 141.6ZM646.02 153.95C649.086 153.95 651.536 153.733 653.37 153.3C655.236 152.833 656.17 152.117 656.17 151.15C656.17 150.217 655.236 149.517 653.37 149.05C651.503 148.583 649.053 148.35 646.02 148.35C642.986 148.35 640.536 148.583 638.67 149.05C636.803 149.517 635.87 150.217 635.87 151.15C635.87 152.117 636.786 152.833 638.62 153.3C640.486 153.733 642.953 153.95 646.02 153.95ZM717.766 141.3H712.766V160.2H704.316V117.5H712.766V133.1H717.766V141.3ZM674.116 118.5H698.966V158.2H674.116V118.5ZM682.566 150.35H690.516V126.35H682.566V150.35ZM765.662 124.6V132.8H760.662V141H752.212V117.5H760.662V124.6H765.662ZM750.212 137.8C749.112 138.267 747.645 138.633 745.812 138.9C743.979 139.167 742.045 139.3 740.012 139.3H721.512V118H747.762V124.95H729.962V132.4H740.362C742.329 132.4 744.179 132.283 745.912 132.05C747.679 131.783 749.112 131.433 750.212 131V137.8ZM741.812 141.6C747.645 141.6 752.312 142.367 755.812 143.9C759.312 145.4 761.062 147.817 761.062 151.15C761.062 154.483 759.312 156.9 755.812 158.4C752.312 159.933 747.645 160.7 741.812 160.7C735.979 160.7 731.312 159.933 727.812 158.4C724.312 156.9 722.562 154.483 722.562 151.15C722.562 147.817 724.312 145.4 727.812 143.9C731.312 142.367 735.979 141.6 741.812 141.6ZM741.812 153.95C744.879 153.95 747.329 153.733 749.162 153.3C751.029 152.833 751.962 152.117 751.962 151.15C751.962 150.217 751.029 149.517 749.162 149.05C747.295 148.583 744.845 148.35 741.812 148.35C738.779 148.35 736.329 148.583 734.462 149.05C732.595 149.517 731.662 150.217 731.662 151.15C731.662 152.117 732.579 152.833 734.412 153.3C736.279 153.733 738.745 153.95 741.812 153.95Z" fill="#FAFF00"/>
<path d="M810.958 117.5V160.2H803.058V117.5H810.958ZM792.308 117.7H800.108V159.45H792.308V141.85H789.258C788.991 147.75 787.991 152.033 786.258 154.7C784.558 157.367 782.108 158.7 778.908 158.7C775.441 158.7 772.825 157.1 771.058 153.9C769.325 150.667 768.458 145.483 768.458 138.35C768.458 131.25 769.325 126.083 771.058 122.85C772.825 119.617 775.441 118 778.908 118C781.975 118 784.375 119.267 786.108 121.8C787.841 124.3 788.875 128.283 789.208 133.75H792.308V117.7ZM778.908 151.05C779.841 151.05 780.508 150.05 780.908 148.05C781.308 146.05 781.508 142.817 781.508 138.35C781.508 133.883 781.308 130.65 780.908 128.65C780.508 126.65 779.841 125.65 778.908 125.65C777.975 125.65 777.308 126.65 776.908 128.65C776.508 130.65 776.308 133.883 776.308 138.35C776.308 142.817 776.508 146.05 776.908 148.05C777.308 150.05 777.975 151.05 778.908 151.05ZM857.854 117.5V160.2H849.404V139.2H840.404V131.3H849.404V117.5H857.854ZM835.804 118.65C835.804 124.317 835.404 129.45 834.604 134.05L847.004 153.65L839.754 158.15L831.704 144.65C829.971 148.983 827.788 152.317 825.154 154.65C822.521 156.983 819.588 158.167 816.354 158.2V149.4C818.521 149.167 820.421 147.717 822.054 145.05C823.688 142.35 824.954 138.7 825.854 134.1C826.754 129.5 827.204 124.25 827.204 118.35L835.804 118.65ZM605.56 182.5V225.2H597.61V206.2H593.71V224.45H585.86V219.9L580.31 222.6L575.11 211.75C572.443 219.15 568.426 222.967 563.06 223.2V214.6C564.626 214.367 565.976 212.95 567.11 210.35C568.243 207.75 569.11 204.15 569.71 199.55C570.31 194.95 570.61 189.55 570.61 183.35L578.61 183.65C578.61 189.983 578.293 195.483 577.66 200.15L585.86 216.1V182.7H593.71V198.2H597.61V182.5H605.56ZM654.156 216V223.7H610.956V216H628.256V211.2H613.356V193.8H643.456V190.9H613.256V183.5H651.806V200.85H621.706V203.8H652.306V211.2H636.856V216H654.156ZM680.452 201.2C674.552 201.2 669.802 200.383 666.202 198.75C662.635 197.117 660.852 194.7 660.852 191.5C660.852 188.3 662.635 185.883 666.202 184.25C669.802 182.617 674.552 181.8 680.452 181.8C686.352 181.8 691.085 182.617 694.652 184.25C698.252 185.883 700.052 188.3 700.052 191.5C700.052 194.7 698.252 197.117 694.652 198.75C691.085 200.383 686.352 201.2 680.452 201.2ZM680.452 188.3C677.218 188.3 674.635 188.583 672.702 189.15C670.802 189.717 669.852 190.5 669.852 191.5C669.852 192.533 670.802 193.333 672.702 193.9C674.602 194.433 677.185 194.7 680.452 194.7C683.718 194.7 686.302 194.433 688.202 193.9C690.102 193.333 691.052 192.533 691.052 191.5C691.052 190.5 690.085 189.717 688.152 189.15C686.252 188.583 683.685 188.3 680.452 188.3ZM702.052 203.1V210.05H684.702V215.85H676.202V210.05H658.852V203.1H702.052ZM669.952 218.2H700.052V225.2H661.352V212.55H669.952V218.2ZM761.862 225.2H753.412V182.5H761.862V225.2ZM746.812 195.05C746.812 200.783 745.795 205.767 743.762 210C741.762 214.233 738.912 217.5 735.212 219.8C731.512 222.067 727.179 223.2 722.212 223.2V215.2C727.312 215.167 731.245 213.367 734.012 209.8C736.779 206.233 738.162 201.317 738.162 195.05V191.2H722.212V183.5H746.812V195.05ZM797.808 193.4H768.608V186.2H778.808V182.2H787.508V186.2H797.808V193.4ZM809.858 182.5V225.2H801.408V182.5H809.858ZM787.908 215.75C790.041 215.75 792.091 215.617 794.058 215.35C796.058 215.05 797.691 214.617 798.958 214.05V221.5C797.691 222.067 796.075 222.483 794.108 222.75C792.141 223.05 790.025 223.2 787.758 223.2H768.458V215.75H778.958V212.15C776.258 211.65 774.125 210.667 772.558 209.2C770.991 207.733 770.208 205.867 770.208 203.6C770.208 200.767 771.408 198.583 773.808 197.05C776.208 195.483 779.358 194.7 783.258 194.7C787.158 194.7 790.308 195.483 792.708 197.05C795.108 198.583 796.308 200.767 796.308 203.6C796.308 205.9 795.508 207.783 793.908 209.25C792.341 210.683 790.175 211.65 787.408 212.15V215.75H787.908ZM778.108 203.6C778.108 204.333 778.575 204.9 779.508 205.3C780.441 205.667 781.691 205.85 783.258 205.85C784.825 205.85 786.075 205.667 787.008 205.3C787.941 204.9 788.408 204.333 788.408 203.6C788.408 202.867 787.941 202.317 787.008 201.95C786.075 201.55 784.825 201.35 783.258 201.35C781.691 201.35 780.441 201.55 779.508 201.95C778.575 202.317 778.108 202.867 778.108 203.6ZM856.954 193.25H827.154V194.75H857.404V199.6H819.004V188.9H848.804V187.4H818.904V182.5H856.954V193.25ZM859.554 206.65H816.354V201.05H859.554V206.65ZM857.054 218.8H827.054V220.3H857.504V225.2H818.904V214.45H848.904V212.95H818.804V208.1H857.054V218.8ZM642.199 260.8H634.499V253.05H642.199V247.5H650.649V279.15H642.199V260.8ZM623.849 264.95C622.016 267.55 619.832 269.633 617.299 271.2C614.766 272.767 612.016 273.633 609.049 273.8V265.95C611.216 265.683 613.149 264.717 614.849 263.05C616.549 261.35 617.882 259.167 618.849 256.5C619.816 253.8 620.316 250.867 620.349 247.7L628.849 248.2C628.849 251.733 628.299 255.05 627.199 258.15L639.149 267.6L633.949 273.35L623.849 264.95ZM651.249 282.65V290.2H612.449V275.25H621.049V282.65H651.249ZM697.645 262.5H659.645V247.5H697.645V262.5ZM689.295 253.55H667.995V256.45H689.295V253.55ZM682.845 270.25V272.1H697.745V283.35H667.845V284.85H698.195V290.2H659.595V278.9H689.495V277.4H659.495V272.1H674.445V270.25H657.045V264.1H700.245V270.25H682.845ZM733.741 255.55H704.541V249.7H714.841V246.7H723.441V249.7H733.741V255.55ZM750.041 254.6V262.25H745.041V269.65H736.591V247.5H745.041V254.6H750.041ZM719.141 270.05C715.375 270.05 712.275 269.483 709.841 268.35C707.408 267.183 706.191 265.5 706.191 263.3C706.191 261.1 707.408 259.433 709.841 258.3C712.275 257.133 715.375 256.55 719.141 256.55C722.908 256.55 726.008 257.133 728.441 258.3C730.875 259.433 732.091 261.1 732.091 263.3C732.091 265.5 730.875 267.183 728.441 268.35C726.008 269.483 722.908 270.05 719.141 270.05ZM719.141 261.9C717.575 261.9 716.325 262.017 715.391 262.25C714.491 262.483 714.041 262.833 714.041 263.3C714.041 263.767 714.491 264.117 715.391 264.35C716.325 264.583 717.575 264.7 719.141 264.7C720.708 264.7 721.941 264.583 722.841 264.35C723.775 264.117 724.241 263.767 724.241 263.3C724.241 262.833 723.775 262.483 722.841 262.25C721.941 262.017 720.708 261.9 719.141 261.9ZM715.691 284.7H745.491V290.2H707.391V278.15H736.741V276.6H707.291V271.15H745.041V283.1H715.691V284.7ZM795.337 247.5V290.2H787.337V247.5H795.337ZM776.237 247.7H784.137V289.45H776.237V271.2H771.137C770.304 274.867 769.004 277.967 767.237 280.5C765.504 283.033 763.454 284.933 761.087 286.2C758.721 287.5 756.171 288.167 753.437 288.2V280.3C756.737 280.033 759.337 278.317 761.237 275.15C763.137 271.95 764.087 267.417 764.087 261.55V256.1H753.437V248.5H772.187V261.25C772.187 262.117 772.171 262.767 772.137 263.2H776.237V247.7ZM843.934 280.95V288.7H800.734V280.95H809.084V271.7C806.95 270.5 805.3 269 804.134 267.2C802.967 265.367 802.384 263.35 802.384 261.15C802.384 258.483 803.2 256.133 804.834 254.1C806.5 252.033 808.85 250.433 811.884 249.3C814.917 248.133 818.4 247.55 822.334 247.55C826.267 247.55 829.75 248.133 832.784 249.3C835.817 250.433 838.15 252.033 839.784 254.1C841.45 256.133 842.284 258.483 842.284 261.15C842.284 263.35 841.7 265.367 840.534 267.2C839.367 269 837.717 270.5 835.584 271.7V280.95H843.934ZM822.334 255.15C819.067 255.15 816.417 255.7 814.384 256.8C812.35 257.9 811.334 259.35 811.334 261.15C811.334 262.317 811.8 263.367 812.734 264.3C813.667 265.2 814.967 265.9 816.634 266.4C818.3 266.9 820.2 267.15 822.334 267.15C824.467 267.15 826.367 266.9 828.034 266.4C829.7 265.9 831 265.2 831.934 264.3C832.867 263.367 833.334 262.317 833.334 261.15C833.334 259.35 832.317 257.9 830.284 256.8C828.25 255.7 825.6 255.15 822.334 255.15ZM817.534 280.95H827.134V274.4C825.634 274.6 824.034 274.7 822.334 274.7C820.634 274.7 819.034 274.6 817.534 274.4V280.95ZM857.18 276H850.98L848.68 248.75H859.48L857.18 276ZM854.08 279.65C855.613 279.65 856.88 280.15 857.88 281.15C858.88 282.15 859.38 283.417 859.38 284.95C859.38 286.483 858.88 287.733 857.88 288.7C856.88 289.7 855.613 290.2 854.08 290.2C852.546 290.2 851.28 289.7 850.28 288.7C849.28 287.733 848.78 286.483 848.78 284.95C848.78 283.417 849.28 282.15 850.28 281.15C851.28 280.15 852.546 279.65 854.08 279.65Z" fill="white"/>
<path d="M0 113V61H296L279.796 87.321L296 113H0Z" fill="white"/>
<path d="M83.7117 83.425H80.2117V90.18H74.2967V72.75H80.2117V77.685H83.7117V83.425ZM72.8967 88.01C72.1267 88.3367 71.1 88.5933 69.8167 88.78C68.5333 88.9667 67.18 89.06 65.7567 89.06H52.8067V72.925H58.7567V84.02H66.0017C67.3783 84.02 68.6733 83.9383 69.8867 83.775C71.1233 83.5883 72.1267 83.3433 72.8967 83.04V88.01ZM53.6817 91.23H80.2117V102.99H74.1917V96.34H53.6817V91.23ZM114.659 72.75V90.18H108.744V83.67H104.824V79.75H98.9791C98.7924 80.4967 98.6291 81.045 98.4891 81.395L106.539 85.735L103.879 90.075L95.8991 85.665C94.6624 87.0183 93.2041 88.1033 91.5241 88.92C89.8674 89.7367 88.0708 90.1683 86.1341 90.215V85.245C87.8141 85.105 89.2491 84.5217 90.4391 83.495C91.6524 82.4683 92.4808 81.22 92.9241 79.75H86.4841V74.99H93.0641V72.225H99.0841V74.99H105.664V78.42H108.744V72.75H114.659ZM87.9191 91.23H114.659V102.64H87.9191V91.23ZM93.7991 98.02H108.779V95.85H93.7991V98.02ZM150.647 89.41H147.147V102.64H141.232V72.75H147.147V83.67H150.647V89.41ZM132.692 78.875C132.622 81.605 132.377 84.1017 131.957 86.365L140.497 97.635L135.807 101.1L129.927 93.015C128.713 95.6283 127.185 97.6467 125.342 99.07C123.522 100.493 121.503 101.217 119.287 101.24V95.29C120.733 95.1267 122.005 94.3567 123.102 92.98C124.198 91.58 125.062 89.6783 125.692 87.275C126.322 84.8483 126.672 82.0483 126.742 78.875H120.127V73.45H138.957V78.875H132.692ZM192.394 96.06V101.59H162.154V96.06H174.264V91.51H163.799V73.45H169.609V77.265H184.939V73.45H190.749V91.51H180.284V96.06H192.394ZM169.609 86.225H184.939V82.48H169.609V86.225ZM227.191 77.335V82.97H223.691V89.2H217.776V72.75H223.691V77.335H227.191ZM206.191 83.355C204.931 85.035 203.391 86.3767 201.571 87.38C199.751 88.3833 197.768 88.9433 195.621 89.06V83.775C197.185 83.5883 198.55 83.0167 199.716 82.06C200.906 81.08 201.84 79.7967 202.516 78.21C203.193 76.6233 203.543 74.85 203.566 72.89L209.516 73.24C209.516 75.2 209.201 77.0783 208.571 78.875L216.691 84.02L213.681 88.29L206.191 83.355ZM210.496 89.62C214.58 89.62 217.846 90.1567 220.296 91.23C222.746 92.28 223.971 93.9717 223.971 96.305C223.971 98.6383 222.746 100.33 220.296 101.38C217.846 102.453 214.58 102.99 210.496 102.99C206.413 102.99 203.146 102.453 200.696 101.38C198.246 100.33 197.021 98.6383 197.021 96.305C197.021 93.9717 198.246 92.28 200.696 91.23C203.146 90.1567 206.413 89.62 210.496 89.62ZM210.496 98.265C212.643 98.265 214.358 98.1133 215.641 97.81C216.948 97.4833 217.601 96.9817 217.601 96.305C217.601 95.6517 216.948 95.1617 215.641 94.835C214.335 94.5083 212.62 94.345 210.496 94.345C208.373 94.345 206.658 94.5083 205.351 94.835C204.045 95.1617 203.391 95.6517 203.391 96.305C203.391 96.9817 204.033 97.4833 205.316 97.81C206.623 98.1133 208.35 98.265 210.496 98.265Z" fill="#DF669B"/>
<g filter="url(#filter0_f_5806_109925)">
<circle cx="346.5" cy="231.5" r="45.5" fill="white"/>
</g>
<g filter="url(#filter1_f_5806_109925)">
<circle cx="239" cy="285" r="38" fill="white"/>
</g>
<circle cx="123" cy="223" r="54" fill="white"/>
<path d="M101.823 204V221.08H98.4428V204H101.823ZM93.3428 207.5C93.3028 209.033 93.1628 210.453 92.9228 211.76L97.8828 218.2L95.2028 220.2L91.7628 215.52C91.0695 217.04 90.1895 218.207 89.1228 219.02C88.0695 219.847 86.8961 220.267 85.6028 220.28V216.88C86.4295 216.787 87.1628 216.347 87.8028 215.56C88.4428 214.76 88.9495 213.667 89.3228 212.28C89.6961 210.893 89.9028 209.3 89.9428 207.5H86.0828V204.4H97.0028V207.5H93.3428ZM120.942 204V214.16H117.622V212.6H115.542L115.742 209.66H117.622V208.16H115.742L115.542 205.22H117.622V204H120.942ZM115.182 208.92C115.182 209.867 114.948 210.713 114.482 211.46C114.028 212.207 113.388 212.787 112.562 213.2C111.735 213.613 110.788 213.82 109.722 213.82C108.655 213.82 107.708 213.613 106.882 213.2C106.055 212.787 105.408 212.207 104.942 211.46C104.488 210.713 104.262 209.867 104.262 208.92C104.262 207.973 104.488 207.133 104.942 206.4C105.408 205.653 106.055 205.073 106.882 204.66C107.708 204.233 108.655 204.02 109.722 204.02C110.788 204.02 111.735 204.233 112.562 204.66C113.388 205.073 114.028 205.653 114.482 206.4C114.948 207.133 115.182 207.973 115.182 208.92ZM107.602 208.92C107.602 209.573 107.795 210.093 108.182 210.48C108.568 210.853 109.082 211.04 109.722 211.04C110.335 211.04 110.842 210.847 111.242 210.46C111.642 210.073 111.842 209.56 111.842 208.92C111.842 208.267 111.648 207.753 111.262 207.38C110.875 206.993 110.362 206.8 109.722 206.8C109.082 206.8 108.568 206.993 108.182 207.38C107.795 207.753 107.602 208.267 107.602 208.92ZM105.782 214.76H120.942V221.28H117.502V217.66H105.782V214.76ZM131.56 209.8C130.6 210.36 129.46 210.8 128.14 211.12C126.82 211.427 125.427 211.593 123.96 211.62V209C125.254 208.973 126.467 208.813 127.6 208.52C128.747 208.227 129.594 207.833 130.14 207.34H124.26V204.76H130.3V203.32H133.74V204.76H139.78V207.34H133.96L133.78 207.72L140.24 209.16L139.44 211.7L131.56 209.8ZM133.7 214.84V215.82H139.66V221.28H136.24V218.46H124.3V215.82H130.34V214.84H123.38V212.16H140.66V214.84H133.7ZM159.419 204V221.08H156.259V204H159.419ZM151.959 204.08H155.079V220.78H151.959V218.62L149.439 220.02L147.239 216.02C146.226 218.78 144.619 220.2 142.419 220.28V216.98C143.272 216.86 143.952 215.96 144.459 214.28C144.966 212.587 145.232 210.313 145.259 207.46H142.759V204.4H150.859V207.46H148.459C148.432 208.993 148.352 210.387 148.219 211.64L151.959 218.12V213.26H149.779V210.08H151.959V204.08ZM112.862 241.52H110.862V249.08H107.482V232H110.862V238.24H112.862V241.52ZM102.022 232.4H105.342V248.28H95.4021V232.4H98.7222V237.42H102.022V232.4ZM102.022 245.18V240.5H98.7222V245.18H102.022ZM122.501 241.5C120.928 241.5 119.548 241.307 118.361 240.92C117.174 240.52 116.254 239.96 115.601 239.24C114.961 238.507 114.641 237.667 114.641 236.72C114.641 235.773 114.961 234.94 115.601 234.22C116.254 233.487 117.174 232.927 118.361 232.54C119.548 232.14 120.928 231.94 122.501 231.94C124.074 231.94 125.454 232.14 126.641 232.54C127.828 232.927 128.741 233.487 129.381 234.22C130.034 234.94 130.361 235.773 130.361 236.72C130.361 237.667 130.034 238.507 129.381 239.24C128.741 239.96 127.828 240.52 126.641 240.92C125.454 241.307 124.074 241.5 122.501 241.5ZM122.501 234.96C121.234 234.96 120.201 235.113 119.401 235.42C118.601 235.727 118.201 236.16 118.201 236.72C118.201 237.28 118.601 237.713 119.401 238.02C120.201 238.327 121.234 238.48 122.501 238.48C123.768 238.48 124.801 238.327 125.601 238.02C126.401 237.713 126.801 237.28 126.801 236.72C126.801 236.16 126.401 235.727 125.601 235.42C124.801 235.113 123.768 234.96 122.501 234.96ZM131.141 245.64H124.241V249.48H120.761V245.64H113.861V242.52H131.141V245.64ZM140.76 237.16C140.693 238.293 140.573 239.34 140.4 240.3L145.26 246.16L142.64 248.24L139.22 243.88C138.526 245.28 137.653 246.36 136.6 247.12C135.546 247.88 134.38 248.267 133.1 248.28V244.96C133.913 244.88 134.626 244.507 135.24 243.84C135.853 243.173 136.34 242.267 136.7 241.12C137.073 239.96 137.293 238.64 137.36 237.16H133.48V234.04H137.34V231.94H140.8V234.04H144.44V237.16H140.76ZM149.5 232V249.08H146.12V241.82H143.26V238.62H146.12V232H149.5Z" fill="#DB56AB"/>
<path d="M330.254 228.456H327.888V216.5H330.254V228.456ZM326.04 220.014C326.04 221.619 325.755 223.015 325.186 224.2C324.626 225.385 323.828 226.3 322.792 226.944C321.756 227.579 320.542 227.896 319.152 227.896V225.656C320.58 225.647 321.681 225.143 322.456 224.144C323.23 223.145 323.618 221.769 323.618 220.014V218.936H319.152V216.78H326.04V220.014ZM343.577 216.5V222.688H341.211V220.672H339.391C339.148 221.297 338.705 221.787 338.061 222.142C337.426 222.497 336.656 222.674 335.751 222.674C334.995 222.674 334.323 222.548 333.735 222.296C333.156 222.044 332.708 221.685 332.391 221.218C332.074 220.751 331.915 220.21 331.915 219.594C331.915 218.978 332.074 218.441 332.391 217.984C332.708 217.517 333.156 217.158 333.735 216.906C334.323 216.645 334.995 216.514 335.751 216.514C336.638 216.514 337.398 216.687 338.033 217.032C338.677 217.377 339.12 217.853 339.363 218.46H341.211V216.5H343.577ZM335.751 220.77C336.208 220.77 336.568 220.663 336.829 220.448C337.1 220.233 337.235 219.949 337.235 219.594C337.235 219.239 337.1 218.955 336.829 218.74C336.568 218.525 336.208 218.418 335.751 218.418C335.294 218.418 334.93 218.525 334.659 218.74C334.398 218.955 334.267 219.239 334.267 219.594C334.267 219.949 334.398 220.233 334.659 220.448C334.93 220.663 335.294 220.77 335.751 220.77ZM341.253 223.108H343.577V228.456H333.021V223.108H335.345V223.892H341.253V223.108ZM341.253 226.58V225.726H335.345V226.58H341.253ZM360.316 220.7H349.676V216.5H360.316V220.7ZM357.978 218.194H352.014V219.006H357.978V218.194ZM356.172 222.87V223.388H360.344V226.538H351.972V226.958H360.47V228.456H349.662V225.292H358.034V224.872H349.634V223.388H353.82V222.87H348.948V221.148H361.044V222.87H356.172ZM373.696 221.302H362.832V219.524H364.666V218.278H362.958V216.5H373.57V218.278H371.862V219.524H373.696V221.302ZM367.018 219.524H369.51V218.278H367.018V219.524ZM369.44 223.64V224.27H373.612V228.456H362.916V224.27H367.088V223.64H362.216V221.848H374.312V223.64H369.44ZM371.274 226.006H365.254V226.72H371.274V226.006ZM325.314 242.87H314.618V236.64H325.314V242.87ZM322.976 238.81H316.956V240.714H322.976V238.81ZM326.014 246.048H321.184V248.736H318.748V246.048H313.918V243.864H326.014V246.048ZM339.281 245.908V248.036H327.185V245.908H329.761V244.48H327.857V239.65H336.285V238.838H327.829V236.78H338.623V241.61H330.195V242.422H338.763V244.48H336.705V245.908H339.281ZM332.127 245.908H334.339V244.48H332.127V245.908ZM346.501 236.304C348.162 236.304 349.483 236.505 350.463 236.906C351.443 237.307 351.933 237.919 351.933 238.74C351.933 239.561 351.443 240.173 350.463 240.574C349.483 240.975 348.162 241.176 346.501 241.176C344.839 241.176 343.519 240.975 342.539 240.574C341.559 240.173 341.069 239.561 341.069 238.74C341.069 237.919 341.559 237.307 342.539 236.906C343.519 236.505 344.839 236.304 346.501 236.304ZM346.501 238.082C345.586 238.082 344.872 238.138 344.359 238.25C343.845 238.362 343.589 238.525 343.589 238.74C343.589 239.179 344.559 239.398 346.501 239.398C348.442 239.398 349.413 239.179 349.413 238.74C349.413 238.525 349.156 238.362 348.643 238.25C348.129 238.138 347.415 238.082 346.501 238.082ZM352.549 243.444H340.453V241.624H352.549V243.444ZM346.501 243.92C350.141 243.92 351.961 244.699 351.961 246.258C351.961 247.817 350.141 248.596 346.501 248.596C342.861 248.596 341.041 247.817 341.041 246.258C341.041 244.699 342.861 243.92 346.501 243.92ZM346.501 245.684C344.541 245.684 343.561 245.875 343.561 246.258C343.561 246.641 344.541 246.832 346.501 246.832C348.461 246.832 349.441 246.641 349.441 246.258C349.441 245.875 348.461 245.684 346.501 245.684ZM365.816 245.824V248.036H353.72V245.824H358.564V243.892H354.378V236.78H365.158V243.892H360.972V245.824H365.816ZM356.73 241.694H362.806V238.992H356.73V241.694ZM376.269 243.402V236.5H378.635V245.754H376.269V245.264H373.203V243.402H376.269ZM372.279 238.516H367.743V236.584H374.631V240.364H372.279V238.516ZM378.803 246.454V248.456H367.939V244.298H369.815V242.8H366.987V240.882H372.489C373.898 240.882 374.93 240.747 375.583 240.476V242.366C375.238 242.515 374.771 242.627 374.183 242.702C373.604 242.767 372.984 242.8 372.321 242.8H372.167V244.956H370.319V246.454H378.803Z" fill="#E78B71"/>
<path d="M216.664 284.042H214.34V282.334H211.764V280.5H216.664V284.042ZM222.614 284.042H220.29V282.334H217.21V280.5H222.614V284.042ZM223.286 286.268H211.19V284.462H223.286V286.268ZM222.586 290.314H214.214V290.832H222.712V292.456H211.904V288.9H220.276V288.382H211.876V286.772H222.586V290.314ZM236.553 285.232V286.954H224.457V285.232H229.329V284.84C226.492 284.663 225.073 283.911 225.073 282.586C225.073 281.793 225.558 281.214 226.529 280.85C227.5 280.486 228.825 280.304 230.505 280.304C232.185 280.304 233.51 280.486 234.481 280.85C235.452 281.214 235.937 281.793 235.937 282.586C235.937 283.911 234.518 284.663 231.681 284.84V285.232H236.553ZM227.579 282.586C227.579 282.782 227.836 282.931 228.349 283.034C228.872 283.137 229.59 283.188 230.505 283.188C231.42 283.188 232.134 283.137 232.647 283.034C233.17 282.931 233.431 282.782 233.431 282.586C233.431 282.39 233.17 282.241 232.647 282.138C232.124 282.035 231.41 281.984 230.505 281.984C229.6 281.984 228.886 282.035 228.363 282.138C227.84 282.241 227.579 282.39 227.579 282.586ZM227.481 290.916H235.979V292.456H225.171V289.278H233.543V288.872H225.143V287.388H235.853V290.51H227.481V290.916ZM250.408 286.184H242.148V284.028H250.408V282.81H242.148V280.64H252.844V287.262H250.408V286.184ZM253.544 290.048H248.714V292.736H246.278V290.048H241.448V287.864H253.544V290.048ZM266.812 286.674V288.606H254.716V286.674H259.574V285.876H255.332V284.014H257.152V282.362H255.458V280.5H266.07V282.362H264.376V284.014H266.196V285.876H261.954V286.674H266.812ZM259.518 284.014H262.01V282.362H259.518V284.014ZM257.824 290.51H266.252V292.456H255.416V289.11H257.824V290.51Z" fill="#DD5FA1"/>
</g>
<defs>
<filter id="filter0_f_5806_109925" x="298" y="183" width="97" height="97" filterUnits="userSpaceOnUse" color-interpolation-filters="sRGB">
<feFlood flood-opacity="0" result="BackgroundImageFix"/>
<feBlend mode="normal" in="SourceGraphic" in2="BackgroundImageFix" result="shape"/>
<feGaussianBlur stdDeviation="1.5" result="effect1_foregroundBlur_5806_109925"/>
</filter>
<filter id="filter1_f_5806_109925" x="195" y="241" width="88" height="88" filterUnits="userSpaceOnUse" color-interpolation-filters="sRGB">
<feFlood flood-opacity="0" result="BackgroundImageFix"/>
<feBlend mode="normal" in="SourceGraphic" in2="BackgroundImageFix" result="shape"/>
<feGaussianBlur stdDeviation="3" result="effect1_foregroundBlur_5806_109925"/>
</filter>
<linearGradient id="paint0_linear_5806_109925" x1="460.741" y1="-302.267" x2="577.675" y2="663.969" gradientUnits="userSpaceOnUse">
<stop stop-color="#FFF400"/>
<stop offset="1" stop-color="#C908FF"/>
</linearGradient>
<clipPath id="clip0_5806_109925">
<rect width="950" height="369" rx="30" fill="white"/>
</clipPath>
</defs>
</svg>
