<svg width="950" height="369" viewBox="0 0 950 369" fill="none" xmlns="http://www.w3.org/2000/svg">
<g clip-path="url(#clip0_5806_109940)">
<rect width="950" height="369" rx="30" fill="url(#paint0_linear_5806_109940)"/>
<path d="M99.285 91.335V96.97H95.785V103.2H89.87V86.75H95.785V91.335H99.285ZM78.355 98.09C77.1417 99.5367 75.6367 100.715 73.84 101.625C72.0667 102.512 70.1417 102.978 68.065 103.025V97.845C69.3017 97.775 70.41 97.46 71.39 96.9C72.3933 96.34 73.1983 95.6283 73.805 94.765C74.435 93.9017 74.855 92.98 75.065 92H68.485V87.1H87.525V92H81.05C81.0267 92.3733 80.9217 92.9333 80.735 93.68L88.575 98.02L85.81 102.395L78.355 98.09ZM82.59 103.62C86.6733 103.62 89.94 104.157 92.39 105.23C94.84 106.28 96.065 107.972 96.065 110.305C96.065 112.638 94.84 114.33 92.39 115.38C89.94 116.453 86.6733 116.99 82.59 116.99C78.5067 116.99 75.24 116.453 72.79 115.38C70.34 114.33 69.115 112.638 69.115 110.305C69.115 107.972 70.34 106.28 72.79 105.23C75.24 104.157 78.5067 103.62 82.59 103.62ZM82.59 112.265C84.7367 112.265 86.4517 112.113 87.735 111.81C89.0417 111.483 89.695 110.982 89.695 110.305C89.695 109.652 89.0417 109.162 87.735 108.835C86.4283 108.508 84.7133 108.345 82.59 108.345C80.4667 108.345 78.7517 108.508 77.445 108.835C76.1383 109.162 75.485 109.652 75.485 110.305C75.485 110.982 76.1267 111.483 77.41 111.81C78.7167 112.113 80.4433 112.265 82.59 112.265ZM132.752 103.41H129.252V116.64H123.337V86.75H129.252V97.67H132.752V103.41ZM102.197 87.45H119.592V115.24H102.197V87.45ZM108.112 109.745H113.677V92.945H108.112V109.745ZM166.22 91.72V97.46H162.72V103.2H156.805V86.75H162.72V91.72H166.22ZM155.405 100.96C154.635 101.287 153.608 101.543 152.325 101.73C151.042 101.917 149.688 102.01 148.265 102.01H135.315V87.1H153.69V91.965H141.23V97.18H148.51C149.887 97.18 151.182 97.0983 152.395 96.935C153.632 96.7483 154.635 96.5033 155.405 96.2V100.96ZM149.525 103.62C153.608 103.62 156.875 104.157 159.325 105.23C161.775 106.28 163 107.972 163 110.305C163 112.638 161.775 114.33 159.325 115.38C156.875 116.453 153.608 116.99 149.525 116.99C145.442 116.99 142.175 116.453 139.725 115.38C137.275 114.33 136.05 112.638 136.05 110.305C136.05 107.972 137.275 106.28 139.725 105.23C142.175 104.157 145.442 103.62 149.525 103.62ZM149.525 112.265C151.672 112.265 153.387 112.113 154.67 111.81C155.977 111.483 156.63 110.982 156.63 110.305C156.63 109.652 155.977 109.162 154.67 108.835C153.363 108.508 151.648 108.345 149.525 108.345C147.402 108.345 145.687 108.508 144.38 108.835C143.073 109.162 142.42 109.652 142.42 110.305C142.42 110.982 143.062 111.483 144.345 111.81C145.652 112.113 147.378 112.265 149.525 112.265ZM197.867 86.75V116.64H192.337V86.75H197.867ZM184.812 86.89H190.272V116.115H184.812V103.795H182.677C182.491 107.925 181.791 110.923 180.577 112.79C179.387 114.657 177.672 115.59 175.432 115.59C173.006 115.59 171.174 114.47 169.937 112.23C168.724 109.967 168.117 106.338 168.117 101.345C168.117 96.375 168.724 92.7583 169.937 90.495C171.174 88.2317 173.006 87.1 175.432 87.1C177.579 87.1 179.259 87.9867 180.472 89.76C181.686 91.51 182.409 94.2983 182.642 98.125H184.812V86.89ZM175.432 110.235C176.086 110.235 176.552 109.535 176.832 108.135C177.112 106.735 177.252 104.472 177.252 101.345C177.252 98.2183 177.112 95.955 176.832 94.555C176.552 93.155 176.086 92.455 175.432 92.455C174.779 92.455 174.312 93.155 174.032 94.555C173.752 95.955 173.612 98.2183 173.612 101.345C173.612 104.472 173.752 106.735 174.032 108.135C174.312 109.535 174.779 110.235 175.432 110.235ZM230.635 86.75V116.64H224.72V101.94H218.42V96.41H224.72V86.75H230.635ZM215.2 87.555C215.2 91.5217 214.92 95.115 214.36 98.335L223.04 112.055L217.965 115.205L212.33 105.755C211.116 108.788 209.588 111.122 207.745 112.755C205.901 114.388 203.848 115.217 201.585 115.24V109.08C203.101 108.917 204.431 107.902 205.575 106.035C206.718 104.145 207.605 101.59 208.235 98.37C208.865 95.15 209.18 91.475 209.18 87.345L215.2 87.555ZM242.822 93.82H263.752V98.72H236.872V86.575H242.822V93.82ZM265.292 105.72H235.052V100.785H265.292V105.72ZM242.822 111.705H263.892V116.64H236.802V107.365H242.822V111.705ZM288.84 116.15H282.505V93.155H277.465V87.625H288.84V116.15ZM305.146 86.855C307.27 86.855 309.148 87.4267 310.781 88.57C312.438 89.69 313.733 91.3817 314.666 93.645C315.6 95.885 316.066 98.6267 316.066 101.87C316.066 105.113 315.6 107.855 314.666 110.095C313.733 112.335 312.438 114.015 310.781 115.135C309.148 116.278 307.27 116.85 305.146 116.85C303.023 116.85 301.133 116.278 299.476 115.135C297.843 114.015 296.56 112.335 295.626 110.095C294.693 107.855 294.226 105.113 294.226 101.87C294.226 98.6267 294.693 95.885 295.626 93.645C296.56 91.3817 297.843 89.69 299.476 88.57C301.133 87.4267 303.023 86.855 305.146 86.855ZM305.146 92.42C303.676 92.42 302.486 93.2133 301.576 94.8C300.69 96.3867 300.246 98.7433 300.246 101.87C300.246 104.973 300.69 107.318 301.576 108.905C302.486 110.492 303.676 111.285 305.146 111.285C306.616 111.285 307.795 110.492 308.681 108.905C309.591 107.318 310.046 104.973 310.046 101.87C310.046 98.7433 309.591 96.3867 308.681 94.8C307.795 93.2133 306.616 92.42 305.146 92.42ZM329.59 86.855C331.714 86.855 333.592 87.4267 335.225 88.57C336.882 89.69 338.177 91.3817 339.11 93.645C340.044 95.885 340.51 98.6267 340.51 101.87C340.51 105.113 340.044 107.855 339.11 110.095C338.177 112.335 336.882 114.015 335.225 115.135C333.592 116.278 331.714 116.85 329.59 116.85C327.467 116.85 325.577 116.278 323.92 115.135C322.287 114.015 321.004 112.335 320.07 110.095C319.137 107.855 318.67 105.113 318.67 101.87C318.67 98.6267 319.137 95.885 320.07 93.645C321.004 91.3817 322.287 89.69 323.92 88.57C325.577 87.4267 327.467 86.855 329.59 86.855ZM329.59 92.42C328.12 92.42 326.93 93.2133 326.02 94.8C325.134 96.3867 324.69 98.7433 324.69 101.87C324.69 104.973 325.134 107.318 326.02 108.905C326.93 110.492 328.12 111.285 329.59 111.285C331.06 111.285 332.239 110.492 333.125 108.905C334.035 107.318 334.49 104.973 334.49 101.87C334.49 98.7433 334.035 96.3867 333.125 94.8C332.239 93.2133 331.06 92.42 329.59 92.42ZM354.069 98.615C351.293 98.615 349.064 98.1017 347.384 97.075C345.728 96.025 344.899 94.5083 344.899 92.525C344.899 90.5417 345.728 89.0367 347.384 88.01C349.064 86.96 351.293 86.435 354.069 86.435C356.846 86.435 359.063 86.96 360.719 88.01C362.399 89.0367 363.239 90.5417 363.239 92.525C363.239 94.5083 362.399 96.025 360.719 97.075C359.063 98.1017 356.846 98.615 354.069 98.615ZM366.634 105.02V86.75H372.549V109.955H366.634V109.115H358.934V105.02H366.634ZM354.069 90.775C352.996 90.775 352.144 90.9267 351.514 91.23C350.908 91.51 350.604 91.9417 350.604 92.525C350.604 93.1083 350.908 93.5517 351.514 93.855C352.144 94.135 352.996 94.275 354.069 94.275C355.143 94.275 355.983 94.135 356.589 93.855C357.219 93.5517 357.534 93.1083 357.534 92.525C357.534 91.9417 357.219 91.51 356.589 91.23C355.983 90.9267 355.143 90.775 354.069 90.775ZM372.969 111.705V116.64H345.809V107.155H350.569V104.18H343.429V99.63H357.184C358.724 99.63 360.183 99.5483 361.559 99.385C362.936 99.1983 364.056 98.9183 364.919 98.545V103.095C363.263 103.818 360.649 104.18 357.079 104.18H356.449V108.695H351.724V111.705H372.969ZM392.017 86.995C394.793 86.995 397.232 87.415 399.332 88.255C401.432 89.0717 403.053 90.2267 404.197 91.72C405.34 93.2133 405.912 94.9283 405.912 96.865C405.912 98.8017 405.34 100.517 404.197 102.01C403.053 103.503 401.432 104.67 399.332 105.51C397.232 106.327 394.793 106.735 392.017 106.735C389.24 106.735 386.802 106.327 384.702 105.51C382.602 104.67 380.98 103.503 379.837 102.01C378.693 100.517 378.122 98.8017 378.122 96.865C378.122 94.9283 378.693 93.2133 379.837 91.72C380.98 90.2267 382.602 89.0717 384.702 88.255C386.802 87.415 389.24 86.995 392.017 86.995ZM392.017 92.35C390.523 92.35 389.193 92.5367 388.027 92.91C386.883 93.2833 385.985 93.82 385.332 94.52C384.702 95.1967 384.387 95.9783 384.387 96.865C384.387 97.7517 384.702 98.545 385.332 99.245C385.985 99.9217 386.883 100.447 388.027 100.82C389.193 101.193 390.523 101.38 392.017 101.38C393.51 101.38 394.828 101.193 395.972 100.82C397.138 100.447 398.037 99.9217 398.667 99.245C399.32 98.545 399.647 97.7517 399.647 96.865C399.647 95.9783 399.32 95.1967 398.667 94.52C398.037 93.82 397.138 93.2833 395.972 92.91C394.828 92.5367 393.51 92.35 392.017 92.35ZM407.137 115.59H376.897V110.06H407.137V115.59ZM440.604 110.2V115.59H410.364V110.2H422.474V106.84H412.044V94.66H433.114V92.63H411.974V87.45H438.959V99.595H417.889V101.66H439.309V106.84H428.494V110.2H440.604Z" fill="white"/>
<path d="M85.2169 186.328C80.1466 186.328 76.0826 184.993 73.0249 182.322C70.0059 179.652 68.3029 176.013 67.9159 171.408H78.3081C78.7339 175.394 81.0368 177.387 85.2169 177.387C87.3457 177.387 89.0293 176.691 90.2679 175.297C91.5064 173.865 92.1257 172.046 92.1257 169.84C92.1257 167.595 91.4871 165.795 90.2098 164.441C88.9713 163.047 87.2489 162.351 85.0427 162.351C82.1399 162.351 79.9144 163.415 78.3662 165.544H68.7867L70.1801 137.909H100.08V146.907H79.7595L79.237 155.79C81.4432 154.474 83.9784 153.816 86.8425 153.816C89.9389 153.816 92.6482 154.455 94.9705 155.732C97.3315 157.009 99.1506 158.867 100.428 161.306C101.744 163.705 102.402 166.55 102.402 169.84C102.402 173.091 101.647 175.975 100.138 178.491C98.6668 180.968 96.6155 182.884 93.9835 184.238C91.3903 185.632 88.4681 186.328 85.2169 186.328ZM159.85 146.327V155.848H154.044V173.149H144.232V136.457H154.044V146.327H159.85ZM138.833 165.253H108.585V137.038H138.833V165.253ZM129.138 145.34H118.281V156.951H129.138V145.34ZM120.255 177.213H154.741V186.038H110.269V168.679H120.255V177.213ZM180.778 156.139C176.172 156.139 172.476 155.287 169.689 153.584C166.941 151.842 165.567 149.326 165.567 146.037C165.567 142.747 166.941 140.25 169.689 138.547C172.476 136.805 176.172 135.935 180.778 135.935C185.384 135.935 189.061 136.805 191.809 138.547C194.596 140.25 195.989 142.747 195.989 146.037C195.989 149.326 194.596 151.842 191.809 153.584C189.061 155.287 185.384 156.139 180.778 156.139ZM201.621 166.763V136.457H211.432V174.949H201.621V173.556H188.848V166.763H201.621ZM180.778 143.134C178.998 143.134 177.585 143.385 176.54 143.888C175.534 144.353 175.03 145.069 175.03 146.037C175.03 147.004 175.534 147.74 176.54 148.243C177.585 148.707 178.998 148.939 180.778 148.939C182.558 148.939 183.952 148.707 184.958 148.243C186.003 147.74 186.526 147.004 186.526 146.037C186.526 145.069 186.003 144.353 184.958 143.888C183.952 143.385 182.558 143.134 180.778 143.134ZM212.129 177.852V186.038H167.077V170.304H174.972V165.37H163.129V157.822H185.945C188.5 157.822 190.919 157.687 193.202 157.416C195.486 157.106 197.344 156.642 198.776 156.022V163.57C196.028 164.77 191.693 165.37 185.771 165.37H184.726V172.859H176.888V177.852H212.129ZM271.143 164.092H265.627V186.038H256.048V181.219L251.055 183.89L245.83 172.685C244.552 176.13 242.888 178.761 240.837 180.581C238.824 182.4 236.366 183.445 233.464 183.716H233.405V183.541L229.69 173.498C228.413 176.671 226.787 179.09 224.813 180.755C222.839 182.458 220.439 183.445 217.614 183.716V173.73C219.898 173.227 221.581 170.846 222.665 166.589C223.749 162.293 224.387 155.674 224.581 146.733H219.181V137.618H235.96V146.733H233.638C233.522 151.455 233.212 156.061 232.709 160.551L237.063 171.233C238.108 169.182 238.902 166.163 239.443 162.176C239.985 158.151 240.314 153.003 240.43 146.733H237.702V137.618H254.132V146.733H249.487C249.371 151.997 249.062 156.545 248.558 160.377L256.048 175.239V136.457H265.627V154.571H271.143V164.092ZM322.377 186.038H312.565V136.457H322.377V186.038ZM305.366 164.905H286.381V174.891H297.122C299.444 174.891 301.786 174.678 304.147 174.252C306.508 173.788 308.443 173.207 309.952 172.511V181.335C308.482 182.071 306.527 182.651 304.089 183.077C301.689 183.503 299.231 183.716 296.715 183.716H276.628V156.197H295.612V146.443H276.512V137.618H305.366V164.905ZM398.508 144.063V153.41H392.702V163.744H382.89V136.457H392.702V144.063H398.508ZM363.673 154.048C361.583 156.835 359.029 159.061 356.01 160.725C352.991 162.389 349.701 163.318 346.14 163.512V154.745C348.733 154.436 350.998 153.487 352.933 151.9C354.907 150.275 356.455 148.146 357.577 145.514C358.7 142.882 359.281 139.941 359.319 136.689L369.189 137.27C369.189 140.521 368.666 143.637 367.621 146.617L381.091 155.152L376.098 162.235L363.673 154.048ZM370.815 164.441C377.588 164.441 383.007 165.331 387.071 167.111C391.135 168.853 393.167 171.659 393.167 175.53C393.167 179.4 391.135 182.206 387.071 183.948C383.007 185.728 377.588 186.619 370.815 186.619C364.041 186.619 358.623 185.728 354.559 183.948C350.495 182.206 348.463 179.4 348.463 175.53C348.463 171.659 350.495 168.853 354.559 167.111C358.623 165.331 364.041 164.441 370.815 164.441ZM370.815 178.781C374.375 178.781 377.22 178.529 379.349 178.026C381.516 177.484 382.6 176.652 382.6 175.53C382.6 174.446 381.516 173.633 379.349 173.091C377.181 172.549 374.337 172.278 370.815 172.278C367.292 172.278 364.448 172.549 362.28 173.091C360.113 173.633 359.029 174.446 359.029 175.53C359.029 176.652 360.093 177.484 362.222 178.026C364.39 178.529 367.254 178.781 370.815 178.781ZM449.393 156.371H404.341V148.997H411.947V143.83H404.864V136.457H448.871V143.83H441.788V148.997H449.393V156.371ZM421.7 148.997H432.034V143.83H421.7V148.997ZM431.744 166.066V168.679H449.045V186.038H404.689V168.679H421.991V166.066H401.787V158.635H451.948V166.066H431.744ZM439.35 175.878H414.385V178.839H439.35V175.878Z" fill="#FAFF00"/>
<path d="M520.648 144.121H486.278V148.707H521.228V156.371H476.524V136.457H520.648V144.121ZM523.667 166.995H473.505V159.157H523.667V166.995ZM520.764 186.619H510.836V177.562H476.176V169.782H520.764V186.619ZM578.5 136.457V165.834H569.327V136.457H578.5ZM556.845 153.178H553.129V144.585H556.845V136.689H565.902V165.312H556.845V153.178ZM554.523 163.221C553.245 163.763 551.504 164.189 549.298 164.499C547.13 164.808 544.866 164.963 542.505 164.963H530.023V137.038H551.62V144.469H539.138V147.488H550.633V154.513H539.138V157.59H543.085C545.292 157.59 547.42 157.454 549.472 157.184C551.523 156.874 553.207 156.468 554.523 155.964V163.221ZM532.867 167.576H578.5V186.038H532.867V167.576ZM542.505 178.491H568.863V175.123H542.505V178.491ZM653.238 164.092H647.432V186.038H637.621V136.457H647.432V154.571H653.238V164.092ZM602.264 137.618H630.305V151.029C630.305 157.687 629.164 163.473 626.88 168.389C624.597 173.304 621.345 177.097 617.126 179.768C612.908 182.4 607.953 183.716 602.264 183.716V174.427C608.147 174.388 612.617 172.317 615.675 168.214C618.771 164.112 620.32 158.383 620.32 151.029V146.559H602.264V137.618ZM669.347 147.14H704.24V154.629H659.536V136.167H669.347V147.14ZM706.678 164.963H656.517V157.416H706.678V164.963ZM681.598 167.111C688.681 167.111 694.215 167.885 698.202 169.434C702.227 170.982 704.24 173.459 704.24 176.865C704.24 180.271 702.227 182.748 698.202 184.296C694.215 185.844 688.681 186.619 681.598 186.619C674.515 186.619 668.96 185.844 664.935 184.296C660.949 182.748 658.955 180.271 658.955 176.865C658.955 173.459 660.949 170.982 664.935 169.434C668.96 167.885 674.515 167.111 681.598 167.111ZM681.598 174.427C677.804 174.427 674.824 174.62 672.657 175.007C670.489 175.394 669.406 176.013 669.406 176.865C669.406 178.491 673.47 179.303 681.598 179.303C689.726 179.303 693.79 178.491 693.79 176.865C693.79 176.013 692.706 175.394 690.538 175.007C688.371 174.62 685.391 174.427 681.598 174.427ZM722.091 169.55H714.892L712.221 137.909H724.762L722.091 169.55ZM718.492 173.788C720.272 173.788 721.743 174.368 722.904 175.53C724.065 176.691 724.646 178.162 724.646 179.942C724.646 181.722 724.065 183.174 722.904 184.296C721.743 185.457 720.272 186.038 718.492 186.038C716.711 186.038 715.24 185.457 714.079 184.296C712.918 183.174 712.337 181.722 712.337 179.942C712.337 178.162 712.918 176.691 714.079 175.53C715.24 174.368 716.711 173.788 718.492 173.788Z" fill="white"/>
<g clip-path="url(#clip1_5806_109940)" filter="url(#filter0_f_5806_109940)">
<path fill-rule="evenodd" clip-rule="evenodd" d="M872.848 119.778C877.726 118.047 882.542 117.324 886.429 117.625C888.368 117.776 890.175 118.188 891.656 118.94C893.151 119.694 894.42 120.858 895.006 122.51L897.677 130.038C898.263 131.69 898.011 133.392 897.327 134.921C896.651 136.439 895.509 137.897 894.097 139.237C891.269 141.921 887.074 144.394 882.196 146.125C877.318 147.856 872.502 148.579 868.616 148.278C866.676 148.127 864.869 147.715 863.388 146.963C861.894 146.209 860.625 145.045 860.038 143.392L857.367 135.865C856.781 134.212 857.033 132.51 857.718 130.982C858.393 129.464 859.535 128.006 860.947 126.666C863.775 123.982 867.97 121.509 872.848 119.778ZM893.299 129.642C892.757 130.355 892.123 131.047 891.426 131.709C888.598 134.393 884.403 136.866 879.525 138.597C874.647 140.328 869.831 141.051 865.945 140.75C865.016 140.68 864.094 140.538 863.188 140.326L863.802 142.057C863.954 142.484 864.336 142.965 865.195 143.402C866.065 143.843 867.316 144.173 868.924 144.297C872.135 144.546 876.385 143.949 880.861 142.361C885.336 140.773 889.012 138.558 891.349 136.341C892.519 135.231 893.282 134.187 893.68 133.295C894.073 132.414 894.065 131.801 893.913 131.373L893.299 129.642ZM874.184 123.542C869.706 125.13 866.032 127.345 863.695 129.562C862.526 130.672 861.763 131.716 861.365 132.607C860.972 133.488 860.98 134.102 861.131 134.529C861.283 134.956 861.665 135.437 862.524 135.874C863.394 136.316 864.645 136.645 866.253 136.77C869.464 137.018 873.715 136.421 878.19 134.833C882.665 133.245 886.341 131.03 888.678 128.813C889.848 127.703 890.611 126.659 891.009 125.768C891.402 124.887 891.394 124.273 891.242 123.846C891.091 123.419 890.708 122.938 889.85 122.501C888.979 122.06 887.728 121.73 886.121 121.605C882.91 121.359 878.659 121.954 874.184 123.542Z" fill="#FAFF00"/>
</g>
<g clip-path="url(#clip2_5806_109940)" filter="url(#filter1_f_5806_109940)">
<path fill-rule="evenodd" clip-rule="evenodd" d="M530.964 296.345C533.346 297.155 535.4 298.331 536.791 299.617C537.485 300.259 538.05 300.96 538.387 301.694C538.73 302.431 538.863 303.258 538.588 304.064L537.338 307.739C537.064 308.546 536.455 309.119 535.733 309.495C535.018 309.87 534.143 310.082 533.201 310.167C531.314 310.338 528.969 310.017 526.588 309.207C524.206 308.397 522.152 307.221 520.761 305.935C520.067 305.293 519.502 304.591 519.165 303.858C518.822 303.12 518.689 302.294 518.963 301.487L520.214 297.812C520.488 297.006 521.097 296.433 521.819 296.056C522.534 295.681 523.409 295.469 524.351 295.384C526.238 295.213 528.583 295.534 530.964 296.345ZM535.788 306.269C535.367 306.378 534.917 306.45 534.451 306.493C532.564 306.663 530.22 306.342 527.838 305.532C525.457 304.722 523.403 303.546 522.012 302.26C521.679 301.953 521.37 301.622 521.089 301.267L520.801 302.113C520.73 302.321 520.731 302.62 520.927 303.045C521.125 303.476 521.503 303.978 522.078 304.51C523.228 305.573 525.028 306.626 527.213 307.369C529.398 308.113 531.467 308.376 533.026 308.235C533.807 308.164 534.412 307.996 534.832 307.776C535.248 307.559 535.43 307.323 535.501 307.114L535.788 306.269ZM530.339 298.182C528.153 297.439 526.085 297.176 524.526 297.317C523.745 297.387 523.14 297.555 522.72 297.775C522.304 297.993 522.122 298.229 522.051 298.438C521.98 298.646 521.981 298.945 522.177 299.37C522.376 299.801 522.753 300.303 523.329 300.835C524.478 301.898 526.279 302.951 528.463 303.695C530.648 304.438 532.717 304.701 534.276 304.56C535.057 304.49 535.663 304.321 536.083 304.102C536.498 303.884 536.68 303.648 536.751 303.439C536.822 303.231 536.821 302.932 536.625 302.507C536.427 302.076 536.049 301.573 535.474 301.041C534.324 299.98 532.524 298.926 530.339 298.182Z" fill="#FAFF00"/>
</g>
<g clip-path="url(#clip3_5806_109940)" filter="url(#filter2_f_5806_109940)">
<path fill-rule="evenodd" clip-rule="evenodd" d="M830.964 94.3447C833.346 95.155 835.4 96.3305 836.791 97.6168C837.485 98.2588 838.05 98.9605 838.387 99.6936C838.73 100.431 838.863 101.258 838.588 102.064L837.338 105.739C837.064 106.546 836.455 107.119 835.733 107.495C835.018 107.87 834.143 108.082 833.201 108.167C831.314 108.338 828.969 108.017 826.588 107.207C824.206 106.397 822.152 105.221 820.761 103.935C820.067 103.293 819.502 102.591 819.165 101.858C818.822 101.12 818.689 100.294 818.963 99.4873L820.214 95.8124C820.488 95.0058 821.097 94.4329 821.819 94.0562C822.534 93.6813 823.409 93.4695 824.351 93.3842C826.238 93.2133 828.583 93.5345 830.964 94.3447ZM835.788 104.269C835.367 104.378 834.917 104.45 834.451 104.493C832.564 104.663 830.22 104.342 827.838 103.532C825.457 102.722 823.403 101.546 822.012 100.26C821.679 99.9535 821.37 99.6216 821.089 99.2673L820.801 100.113C820.73 100.321 820.731 100.62 820.927 101.045C821.125 101.476 821.503 101.978 822.078 102.51C823.228 103.573 825.028 104.626 827.213 105.369C829.398 106.113 831.467 106.376 833.026 106.235C833.807 106.164 834.412 105.996 834.832 105.776C835.248 105.559 835.43 105.323 835.501 105.114L835.788 104.269ZM830.339 96.1822C828.153 95.4385 826.085 95.1755 824.526 95.3165C823.745 95.3872 823.14 95.5553 822.72 95.7752C822.304 95.9926 822.122 96.229 822.051 96.4376C821.98 96.6461 821.981 96.9448 822.177 97.3701C822.376 97.8007 822.753 98.3032 823.329 98.8353C824.478 99.8978 826.279 100.951 828.463 101.695C830.648 102.438 832.717 102.701 834.276 102.56C835.057 102.49 835.663 102.321 836.083 102.102C836.498 101.884 836.68 101.648 836.751 101.439C836.822 101.231 836.821 100.932 836.625 100.507C836.427 100.076 836.049 99.5735 835.474 99.0415C834.324 97.9798 832.524 96.9255 830.339 96.1822Z" fill="#FAFF00"/>
</g>
<g clip-path="url(#clip4_5806_109940)" filter="url(#filter3_f_5806_109940)">
<path d="M851.869 267.402L854.897 270.992M879.771 288.556L885.646 283.6L861.007 259.692L842.73 275.112L862.147 303.424L868.021 298.468L860.129 277.193L879.771 288.556Z" stroke="#FAFF00" stroke-width="2" stroke-linecap="round" stroke-linejoin="round"/>
<path d="M847.299 271.258C847.299 271.258 850.604 275.175 850.399 277.582C850.195 279.988 848.07 282.899 848.07 282.899M856.438 263.549C856.438 263.549 859.742 267.465 862.149 267.669C864.556 267.873 867.783 266.268 867.783 266.268" stroke="#FAFF00" stroke-width="2" stroke-linecap="round" stroke-linejoin="round"/>
</g>
<path d="M781.894 261.248C779.624 261.763 777.276 262.991 775.293 264.113C773.35 265.219 771.965 266.219 771.91 266.249L771.837 266.266L765.325 270.242L765.111 270.368C764.82 270.526 764.538 270.697 764.264 270.882L763.549 271.289L763.567 271.368C761.717 272.713 758.94 275.345 757.971 279.725C756.649 285.66 758.015 292.356 758.015 292.356L759.144 297.338L768.951 295.115L776.732 329.438L815.959 320.545L808.177 286.221L817.984 283.998L816.82 278.864C816.82 278.864 816.139 276.836 815.165 274.406C814.192 271.98 813.151 269.295 811.242 267.403C808.925 265.073 806.016 263.42 802.828 262.624L802.775 262.394L801.711 262.313C801.551 262.28 801.589 262.312 801.463 262.289L800.967 262.239L793.135 261.437L793.056 261.455C792.996 261.451 791.316 261.146 789.084 260.989C786.813 260.829 784.167 260.733 781.894 261.248ZM783.006 266.151C784.07 265.91 786.63 265.923 788.707 266.068C789.249 266.105 789.222 266.121 789.696 266.166C789.593 266.429 789.528 266.676 789.391 266.959C788.567 268.646 787.258 270.343 784.117 271.055C780.977 271.767 779.064 270.801 777.593 269.634C777.348 269.437 777.182 269.242 776.976 269.05C777.385 268.805 777.353 268.802 777.826 268.535C779.638 267.508 781.942 266.393 783.006 266.151ZM772.496 271.676C773.02 272.292 773.658 272.934 774.456 273.567C775.954 274.754 777.702 275.586 779.568 276C781.434 276.414 783.37 276.4 785.229 275.958C789.902 274.899 792.616 271.817 793.918 269.155C794.365 268.239 794.663 267.385 794.868 266.604L798.671 267.031L809.944 316.753L780.524 323.423L769.251 273.701L772.496 271.676ZM764.816 276.879L767.839 290.211L762.936 291.323C762.915 291.186 761.941 285.164 762.899 280.858C763.204 279.396 763.863 278.031 764.817 276.882L764.816 276.879ZM804.13 268.371C805.201 268.922 806.42 269.682 807.694 270.945C808.227 271.479 809.618 274.053 810.512 276.268C811.36 278.36 811.906 280.02 811.969 280.207L807.066 281.318L804.13 268.371Z" fill="#FAFF00"/>
<g clip-path="url(#clip5_5806_109940)" filter="url(#filter4_f_5806_109940)">
<path fill-rule="evenodd" clip-rule="evenodd" d="M912.628 203.773C912.162 206.344 910.859 208.685 909.706 210.681L909.637 210.801C909.442 211.137 909.122 211.383 908.746 211.484C908.37 211.584 907.969 211.531 907.632 211.337C907.295 211.142 907.05 210.821 906.949 210.445C906.849 210.069 906.901 209.669 907.096 209.332L907.165 209.214C908.337 207.185 909.377 205.254 909.741 203.25C910.013 201.739 909.986 200.188 909.662 198.687C908.997 195.649 907.157 192.998 904.544 191.311C901.931 189.625 898.757 189.04 895.715 189.686C894.212 190.004 892.788 190.616 891.523 191.487C890.258 192.358 889.178 193.47 888.345 194.76C887.792 195.615 887.521 196.149 887.138 196.906C886.891 197.393 886.598 197.973 886.153 198.79C885.967 199.131 885.652 199.385 885.279 199.495C884.906 199.605 884.504 199.562 884.163 199.376C883.821 199.189 883.568 198.875 883.458 198.502C883.348 198.129 883.391 197.727 883.577 197.385C883.922 196.753 884.191 196.226 884.437 195.741C884.883 194.868 885.256 194.134 885.881 193.169C886.923 191.556 888.275 190.164 889.857 189.074C891.439 187.984 893.222 187.217 895.101 186.819C898.903 186.005 902.873 186.734 906.137 188.846C909.402 190.954 911.7 194.269 912.529 198.065C912.936 199.943 912.969 201.883 912.628 203.773Z" fill="#FAFF00"/>
<path fill-rule="evenodd" clip-rule="evenodd" d="M892.492 202.577L890.646 206.801C890.426 207.305 890.109 207.761 889.712 208.143C889.316 208.525 888.848 208.825 888.335 209.026C887.823 209.227 887.276 209.325 886.725 209.314C886.175 209.304 885.632 209.185 885.128 208.964C883.651 208.319 882.491 207.113 881.903 205.613C881.315 204.112 881.347 202.439 881.992 200.963L883.669 197.122C883.9 196.592 884.234 196.113 884.65 195.712C885.067 195.312 885.558 194.997 886.096 194.786C886.634 194.575 887.209 194.472 887.787 194.484C888.365 194.495 888.935 194.62 889.464 194.851C890.89 195.475 892.01 196.639 892.578 198.087C893.145 199.536 893.114 201.151 892.492 202.577ZM888.29 197.539C887.933 197.384 887.529 197.376 887.167 197.518C886.805 197.659 886.514 197.939 886.358 198.296L884.681 202.138C884.347 202.902 884.331 203.766 884.635 204.542C884.938 205.318 885.538 205.942 886.301 206.276C886.452 206.342 886.615 206.378 886.781 206.382C886.946 206.385 887.11 206.356 887.264 206.295C887.418 206.235 887.558 206.145 887.678 206.03C887.797 205.916 887.892 205.779 887.958 205.627L889.803 201.404C889.958 201.051 890.041 200.67 890.049 200.285C890.056 199.9 889.988 199.517 889.847 199.158C889.706 198.799 889.497 198.471 889.229 198.194C888.962 197.916 888.643 197.693 888.29 197.539ZM907.021 214.847L909.572 211.008C909.877 210.549 910.088 210.035 910.194 209.495C910.3 208.955 910.299 208.399 910.19 207.86C910.082 207.32 909.868 206.807 909.561 206.35C909.254 205.893 908.86 205.501 908.401 205.197C907.059 204.305 905.417 203.983 903.837 204.301C902.257 204.62 900.868 205.553 899.976 206.895L897.656 210.385C897.336 210.867 897.114 211.406 897.003 211.974C896.892 212.541 896.893 213.124 897.008 213.691C897.122 214.258 897.347 214.796 897.669 215.276C897.992 215.756 898.406 216.167 898.887 216.487C900.183 217.348 901.768 217.659 903.294 217.351C904.819 217.043 906.16 216.143 907.021 214.847ZM900.51 214.043C900.186 213.828 899.961 213.493 899.884 213.112C899.807 212.73 899.885 212.334 900.1 212.01L902.421 208.519C902.882 207.825 903.6 207.343 904.417 207.178C905.234 207.013 906.083 207.179 906.777 207.639C907.054 207.825 907.247 208.112 907.313 208.439C907.379 208.766 907.313 209.105 907.129 209.384L904.578 213.222C904.365 213.543 904.091 213.819 903.771 214.035C903.451 214.25 903.092 214.4 902.714 214.476C902.337 214.552 901.947 214.553 901.569 214.479C901.191 214.405 900.831 214.257 900.51 214.043Z" fill="#FAFF00"/>
</g>
<g clip-path="url(#clip6_5806_109940)" filter="url(#filter5_f_5806_109940)">
<path d="M700.797 251.125L731.249 272.511L716.668 293.273L702.826 283.552L700.882 286.321L706.419 290.209L704.475 292.977L690.633 283.257L692.577 280.488L698.114 284.377L700.058 281.608L686.216 271.888L700.797 251.125ZM701.622 255.837L690.929 271.063L715.844 288.561L726.537 273.335L701.622 255.837Z" fill="#FAFF00"/>
</g>
<g clip-path="url(#clip7_5806_109940)" filter="url(#filter6_f_5806_109940)">
<path d="M570.302 313.515C569.949 313.654 569.666 313.928 569.514 314.275C569.363 314.623 569.356 315.017 569.495 315.37C569.634 315.723 569.908 316.006 570.255 316.157C570.603 316.309 570.997 316.315 571.35 316.176L578.447 313.382C578.8 313.243 579.083 312.969 579.235 312.621C579.386 312.274 579.393 311.88 579.254 311.527C579.115 311.174 578.841 310.891 578.494 310.74C578.146 310.588 577.752 310.581 577.399 310.72L570.302 313.515Z" fill="#FAFF00"/>
<path fill-rule="evenodd" clip-rule="evenodd" d="M559.975 301.239C559.677 299.609 559.955 297.926 560.76 296.479C561.566 295.031 562.849 293.907 564.391 293.301L567.939 291.903C569.481 291.296 571.185 291.243 572.762 291.753C574.338 292.263 575.689 293.304 576.582 294.699C579.387 294.351 582.228 294.935 584.668 296.361C587.107 297.788 589.009 299.977 590.081 302.592L594.032 312.626C594.869 314.753 594.956 317.102 594.278 319.285C593.601 321.468 592.199 323.355 590.305 324.634C584.308 328.684 577.495 331.367 570.347 332.493C568.089 332.849 565.778 332.424 563.793 331.289C561.809 330.154 560.271 328.377 559.433 326.25L555.482 316.217C554.483 313.573 554.382 310.674 555.194 307.967C556.005 305.261 557.686 302.896 559.975 301.239ZM562.748 299.46C562.838 298.688 563.135 297.955 563.609 297.339C564.083 296.723 564.716 296.247 565.439 295.962L568.987 294.565C570.513 293.964 572.175 294.297 573.343 295.289C569.621 296.136 566.049 297.542 562.748 299.46ZM587.553 303.979L589.367 308.585C585.493 312.349 580.91 315.306 575.885 317.284C570.859 319.263 565.491 320.225 560.091 320.114L558.158 315.204C557.349 313.065 557.297 310.714 558.01 308.541C558.723 306.369 560.158 304.506 562.077 303.262C562.212 303.168 562.277 303.126 562.342 303.082C566.489 300.309 571.184 298.46 576.109 297.661L576.424 297.612L576.746 297.561C579.009 297.236 581.315 297.695 583.281 298.863C585.247 300.03 586.754 301.835 587.552 303.977M562.094 325.2L561.219 322.979C569.684 322.924 577.95 320.409 585.012 315.741L585.597 317.228C585.736 317.581 586.01 317.865 586.358 318.016C586.705 318.167 587.099 318.174 587.452 318.035C587.805 317.896 588.088 317.623 588.239 317.275C588.391 316.927 588.398 316.533 588.259 316.18L587.414 314.035C588.48 313.222 589.509 312.36 590.496 311.453L591.371 313.674C591.97 315.196 592.032 316.876 591.548 318.438C591.063 320 590.061 321.35 588.706 322.265C583.055 326.079 576.636 328.607 569.902 329.67C568.287 329.924 566.633 329.619 565.214 328.807C563.795 327.995 562.695 326.723 562.096 325.202" fill="#FAFF00"/>
</g>
<g clip-path="url(#clip8_5806_109940)" filter="url(#filter7_f_5806_109940)">
<path d="M609.028 296.433C606.95 295.339 605.563 293.671 604.868 291.429C604.172 289.187 604.371 287.028 605.465 284.95L608.859 278.501C609.953 276.424 611.621 275.037 613.863 274.341C616.105 273.646 618.265 273.845 620.342 274.939C622.42 276.032 623.807 277.7 624.502 279.942C625.198 282.184 624.999 284.344 623.905 286.422L620.511 292.87C619.417 294.948 617.749 296.334 615.507 297.03C613.265 297.726 611.106 297.527 609.028 296.433ZM617.457 283.027L621.756 285.29C622.435 284.001 622.626 282.649 622.33 281.235C622.034 279.821 621.334 278.663 620.229 277.761L617.457 283.027ZM611.009 279.633L615.308 281.896L618.08 276.63C616.712 276.23 615.361 276.308 614.027 276.864C612.693 277.42 611.687 278.343 611.009 279.633ZM610.159 294.283C611.646 295.066 613.189 295.209 614.789 294.713C616.389 294.216 617.58 293.225 618.361 291.738L620.624 287.44L609.877 281.782L607.614 286.081C606.832 287.568 606.689 289.111 607.185 290.711C607.682 292.311 608.673 293.502 610.159 294.283Z" fill="#FAFF00"/>
</g>
</g>
<defs>
<filter id="filter0_f_5806_109940" x="841.926" y="97.3555" width="71.1914" height="71.1914" filterUnits="userSpaceOnUse" color-interpolation-filters="sRGB">
<feFlood flood-opacity="0" result="BackgroundImageFix"/>
<feBlend mode="normal" in="SourceGraphic" in2="BackgroundImageFix" result="shape"/>
<feGaussianBlur stdDeviation="2.5" result="effect1_foregroundBlur_5806_109940"/>
</filter>
<filter id="filter1_f_5806_109940" x="509" y="283" width="39.5518" height="39.5527" filterUnits="userSpaceOnUse" color-interpolation-filters="sRGB">
<feFlood flood-opacity="0" result="BackgroundImageFix"/>
<feBlend mode="normal" in="SourceGraphic" in2="BackgroundImageFix" result="shape"/>
<feGaussianBlur stdDeviation="2.5" result="effect1_foregroundBlur_5806_109940"/>
</filter>
<filter id="filter2_f_5806_109940" x="807" y="79" width="43.5518" height="43.5527" filterUnits="userSpaceOnUse" color-interpolation-filters="sRGB">
<feFlood flood-opacity="0" result="BackgroundImageFix"/>
<feBlend mode="normal" in="SourceGraphic" in2="BackgroundImageFix" result="shape"/>
<feGaussianBlur stdDeviation="3.5" result="effect1_foregroundBlur_5806_109940"/>
</filter>
<filter id="filter3_f_5806_109940" x="831" y="248.574" width="63.7651" height="63.7656" filterUnits="userSpaceOnUse" color-interpolation-filters="sRGB">
<feFlood flood-opacity="0" result="BackgroundImageFix"/>
<feBlend mode="normal" in="SourceGraphic" in2="BackgroundImageFix" result="shape"/>
<feGaussianBlur stdDeviation="1.5" result="effect1_foregroundBlur_5806_109940"/>
</filter>
<filter id="filter4_f_5806_109940" x="871" y="172" width="55.7637" height="55.7637" filterUnits="userSpaceOnUse" color-interpolation-filters="sRGB">
<feFlood flood-opacity="0" result="BackgroundImageFix"/>
<feBlend mode="normal" in="SourceGraphic" in2="BackgroundImageFix" result="shape"/>
<feGaussianBlur stdDeviation="2" result="effect1_foregroundBlur_5806_109940"/>
</filter>
<filter id="filter5_f_5806_109940" x="675" y="242" width="64.5498" height="64.5488" filterUnits="userSpaceOnUse" color-interpolation-filters="sRGB">
<feFlood flood-opacity="0" result="BackgroundImageFix"/>
<feBlend mode="normal" in="SourceGraphic" in2="BackgroundImageFix" result="shape"/>
<feGaussianBlur stdDeviation="2" result="effect1_foregroundBlur_5806_109940"/>
</filter>
<filter id="filter6_f_5806_109940" x="542" y="280" width="63.3516" height="63.3516" filterUnits="userSpaceOnUse" color-interpolation-filters="sRGB">
<feFlood flood-opacity="0" result="BackgroundImageFix"/>
<feBlend mode="normal" in="SourceGraphic" in2="BackgroundImageFix" result="shape"/>
<feGaussianBlur stdDeviation="1" result="effect1_foregroundBlur_5806_109940"/>
</filter>
<filter id="filter7_f_5806_109940" x="592" y="263" width="45.3706" height="45.3711" filterUnits="userSpaceOnUse" color-interpolation-filters="sRGB">
<feFlood flood-opacity="0" result="BackgroundImageFix"/>
<feBlend mode="normal" in="SourceGraphic" in2="BackgroundImageFix" result="shape"/>
<feGaussianBlur stdDeviation="1.5" result="effect1_foregroundBlur_5806_109940"/>
</filter>
<linearGradient id="paint0_linear_5806_109940" x1="475" y1="0" x2="475" y2="369" gradientUnits="userSpaceOnUse">
<stop stop-color="#AA00FF"/>
<stop offset="1" stop-color="white"/>
</linearGradient>
<clipPath id="clip0_5806_109940">
<rect width="950" height="369" rx="30" fill="white"/>
</clipPath>
<clipPath id="clip1_5806_109940">
<rect width="47.9249" height="47.9249" fill="white" transform="translate(846.926 118.381) rotate(-19.535)"/>
</clipPath>
<clipPath id="clip2_5806_109940">
<rect width="23.2909" height="23.2909" fill="white" transform="translate(521.502 288) rotate(18.7908)"/>
</clipPath>
<clipPath id="clip3_5806_109940">
<rect width="23.2909" height="23.2909" fill="white" transform="translate(821.502 86) rotate(18.7908)"/>
</clipPath>
<clipPath id="clip4_5806_109940">
<rect width="40.9926" height="40.9926" fill="white" transform="translate(834 278.008) rotate(-40.1525)"/>
</clipPath>
<clipPath id="clip5_5806_109940">
<rect width="35.2063" height="35.2063" fill="white" transform="translate(891.854 176) rotate(28.6009)"/>
</clipPath>
<clipPath id="clip6_5806_109940">
<rect width="40.5937" height="40.5937" fill="white" transform="translate(702.33 246) rotate(35.0796)"/>
</clipPath>
<clipPath id="clip7_5806_109940">
<rect width="45.7656" height="45.7656" fill="white" transform="translate(544 298.768) rotate(-21.4935)"/>
</clipPath>
<clipPath id="clip8_5806_109940">
<rect width="29.1484" height="29.1484" fill="white" transform="translate(608.577 266) rotate(27.7622)"/>
</clipPath>
</defs>
</svg>
