<svg xmlns="http://www.w3.org/2000/svg" width="31" height="30" viewBox="0 0 31 30" fill="none">
    <mask id="path-1-inside-1_830_15654" fill="white">
        <path fill-rule="evenodd" clip-rule="evenodd" d="M4.86503 2.6087H27.0159C27.7355 2.6087 28.3189 3.19267 28.3189 3.91304V26.087C28.3189 26.8073 27.7355 27.3913 27.0159 27.3913H4.86503C4.1454 27.3913 3.56204 26.8073 3.56204 26.087V3.91304C3.56204 3.19267 4.14541 2.6087 4.86503 2.6087ZM0.956055 3.91304C0.956055 1.75193 2.70616 0 4.86503 0H27.0159C29.1747 0 30.9248 1.75193 30.9248 3.91304V26.087C30.9248 28.2481 29.1747 30 27.0159 30H4.86503C2.70616 30 0.956055 28.2481 0.956055 26.087V3.91304ZM15.9405 22C15.3887 22 14.9415 21.5528 14.9415 21.001V15H8.94878C8.39649 15 7.94878 14.5523 7.94878 14C7.94878 13.4477 8.39649 13 8.94878 13H14.9415V7.99896C14.9415 7.44725 15.3887 7 15.9405 7C16.4922 7 16.9394 7.44725 16.9394 7.99896V13H22.9321C23.4844 13 23.9321 13.4477 23.9321 14C23.9321 14.5523 23.4844 15 22.9321 15H16.9394V21.001C16.9394 21.5528 16.4922 22 15.9405 22Z"/>
    </mask>
    <path fill-rule="evenodd" clip-rule="evenodd" d="M4.86503 2.6087H27.0159C27.7355 2.6087 28.3189 3.19267 28.3189 3.91304V26.087C28.3189 26.8073 27.7355 27.3913 27.0159 27.3913H4.86503C4.1454 27.3913 3.56204 26.8073 3.56204 26.087V3.91304C3.56204 3.19267 4.14541 2.6087 4.86503 2.6087ZM0.956055 3.91304C0.956055 1.75193 2.70616 0 4.86503 0H27.0159C29.1747 0 30.9248 1.75193 30.9248 3.91304V26.087C30.9248 28.2481 29.1747 30 27.0159 30H4.86503C2.70616 30 0.956055 28.2481 0.956055 26.087V3.91304ZM15.9405 22C15.3887 22 14.9415 21.5528 14.9415 21.001V15H8.94878C8.39649 15 7.94878 14.5523 7.94878 14C7.94878 13.4477 8.39649 13 8.94878 13H14.9415V7.99896C14.9415 7.44725 15.3887 7 15.9405 7C16.4922 7 16.9394 7.44725 16.9394 7.99896V13H22.9321C23.4844 13 23.9321 13.4477 23.9321 14C23.9321 14.5523 23.4844 15 22.9321 15H16.9394V21.001C16.9394 21.5528 16.4922 22 15.9405 22Z" fill="white"/>
    <path d="M14.9415 15H15.9415V14H14.9415V15ZM7.94878 14L6.94878 14V14H7.94878ZM14.9415 13V14H15.9415V13H14.9415ZM16.9394 13H15.9394V14H16.9394V13ZM16.9394 15V14H15.9394V15H16.9394ZM27.0159 1.6087H4.86503V3.6087H27.0159V1.6087ZM29.3189 3.91304C29.3189 2.64137 28.2888 1.6087 27.0159 1.6087V3.6087C27.1822 3.6087 27.3189 3.74397 27.3189 3.91304H29.3189ZM29.3189 26.087V3.91304H27.3189V26.087H29.3189ZM27.0159 28.3913C28.2888 28.3913 29.3189 27.3586 29.3189 26.087H27.3189C27.3189 26.256 27.1822 26.3913 27.0159 26.3913V28.3913ZM4.86503 28.3913H27.0159V26.3913H4.86503V28.3913ZM2.56204 26.087C2.56204 27.3586 3.59214 28.3913 4.86503 28.3913V26.3913C4.69867 26.3913 4.56204 26.256 4.56204 26.087H2.56204ZM2.56204 3.91304V26.087H4.56204V3.91304H2.56204ZM4.86503 1.6087C3.59214 1.6087 2.56204 2.64137 2.56204 3.91304H4.56204C4.56204 3.74397 4.69867 3.6087 4.86503 3.6087V1.6087ZM4.86503 -1C2.15289 -1 -0.0439453 1.20063 -0.0439453 3.91304H1.95605C1.95605 2.30323 3.25943 1 4.86503 1V-1ZM27.0159 -1H4.86503V1H27.0159V-1ZM31.9248 3.91304C31.9248 1.20063 29.728 -1 27.0159 -1V1C28.6215 1 29.9248 2.30323 29.9248 3.91304H31.9248ZM31.9248 26.087V3.91304H29.9248V26.087H31.9248ZM27.0159 31C29.728 31 31.9248 28.7994 31.9248 26.087H29.9248C29.9248 27.6968 28.6215 29 27.0159 29V31ZM4.86503 31H27.0159V29H4.86503V31ZM-0.0439453 26.087C-0.0439453 28.7994 2.1529 31 4.86503 31V29C3.25943 29 1.95605 27.6968 1.95605 26.087H-0.0439453ZM-0.0439453 3.91304V26.087H1.95605V3.91304H-0.0439453ZM13.9415 21.001C13.9415 22.105 14.8365 23 15.9405 23V21C15.9392 21 15.939 20.9999 15.9396 21C15.9401 21.0001 15.9407 21.0003 15.9412 21.0005C15.942 21.0009 15.9418 21.0009 15.9412 21.0003C15.9406 20.9997 15.9406 20.9995 15.941 21.0003C15.9412 21.0008 15.9414 21.0014 15.9415 21.0019C15.9416 21.0025 15.9415 21.0023 15.9415 21.001H13.9415ZM13.9415 15V21.001H15.9415V15H13.9415ZM8.94878 16H14.9415V14H8.94878V16ZM6.94878 14C6.94878 15.1046 7.84421 16 8.94878 16V14H6.94878ZM8.94878 12C7.84421 12 6.94878 12.8954 6.94878 14L8.94878 14H8.94878V12ZM14.9415 12H8.94878V14H14.9415V12ZM13.9415 7.99896V13H15.9415V7.99896H13.9415ZM15.9405 6C14.8365 6 13.9415 6.89496 13.9415 7.99896H15.9415C15.9415 7.99772 15.9416 7.99755 15.9415 7.99811C15.9414 7.99862 15.9412 7.99918 15.941 7.99967C15.9406 8.00052 15.9406 8.00033 15.9412 7.9997C15.9418 7.99906 15.942 7.99915 15.9412 7.99951C15.9407 7.99971 15.9401 7.99989 15.9396 7.99999C15.939 8.00011 15.9392 8 15.9405 8V6ZM17.9394 7.99896C17.9394 6.89496 17.0444 6 15.9405 6V8C15.9417 8 15.9419 8.00011 15.9413 7.99999C15.9408 7.99989 15.9402 7.99971 15.9397 7.99951C15.9389 7.99915 15.9391 7.99906 15.9397 7.9997C15.9404 8.00033 15.9403 8.00052 15.9399 7.99967C15.9397 7.99918 15.9395 7.99861 15.9394 7.99811C15.9393 7.99754 15.9394 7.99772 15.9394 7.99896H17.9394ZM17.9394 13V7.99896H15.9394V13H17.9394ZM22.9321 12H16.9394V14H22.9321V12ZM24.9321 14C24.9321 12.8954 24.0367 12 22.9321 12V14H24.9321ZM22.9321 16C24.0367 16 24.9321 15.1046 24.9321 14H22.9321V14V16ZM16.9394 16H22.9321V14H16.9394V16ZM17.9394 21.001V15H15.9394V21.001H17.9394ZM15.9405 23C17.0444 23 17.9394 22.105 17.9394 21.001H15.9394C15.9394 21.0023 15.9393 21.0025 15.9394 21.0019C15.9395 21.0014 15.9397 21.0008 15.9399 21.0003C15.9403 20.9995 15.9403 20.9997 15.9397 21.0003C15.9391 21.0009 15.9389 21.0009 15.9397 21.0005C15.9402 21.0003 15.9408 21.0001 15.9413 21C15.9419 20.9999 15.9417 21 15.9405 21V23Z" fill="white" mask="url(#path-1-inside-1_830_15654)"/>
</svg>