<svg xmlns="http://www.w3.org/2000/svg" width="22" height="24" viewBox="0 0 22 24" fill="none">
    <path fill-rule="evenodd" clip-rule="evenodd" d="M10.9997 13.7143C11.8676 13.7143 12.5711 12.9468 12.5711 12C12.5711 11.0532 11.8676 10.2857 10.9997 10.2857C10.1318 10.2857 9.42825 11.0532 9.42825 12C9.42825 12.9468 10.1318 13.7143 10.9997 13.7143ZM10.9997 16C13.0247 16 14.6663 14.2091 14.6663 12C14.6663 9.79086 13.0247 8 10.9997 8C8.97463 8 7.33301 9.79086 7.33301 12C7.33301 14.2091 8.97463 16 10.9997 16Z" fill="black"/>
    <path fill-rule="evenodd" clip-rule="evenodd" d="M8.10214 2.6087C8.10214 1.16795 9.31918 0 10.8205 0C12.3218 0 13.5388 1.16795 13.5388 2.6087V3.52047C14.5731 3.82547 15.5302 4.29998 16.3746 4.9102L17.922 4.05284C19.2222 3.33247 20.8847 3.75997 21.6354 5.00769C22.386 6.25541 21.9405 7.85086 20.6404 8.57124L19.5786 9.15951C19.8926 10.0513 20.0628 11.0067 20.0628 12.0002C20.0628 12.863 19.9345 13.697 19.6951 14.4856L20.6404 15.0094C21.9405 15.7297 22.386 17.3252 21.6354 18.5729C20.8847 19.8206 19.2222 20.2481 17.922 19.5278L16.695 18.8479C15.7752 19.5755 14.7063 20.1357 13.5388 20.4799V21.3913C13.5388 22.832 12.3218 24 10.8205 24C9.31918 24 8.10214 22.832 8.10214 21.3913V20.4799C7.01697 20.1599 6.01691 19.6534 5.1426 18.9992L4.71956 19.4052C3.65798 20.424 1.93683 20.424 0.87525 19.4052C-0.186326 18.3864 -0.186326 16.7347 0.87525 15.7159L1.99487 14.6415C1.72405 13.8072 1.57814 12.92 1.57814 12.0002C1.57814 10.9448 1.77022 9.93243 2.12267 8.99358L1.35962 8.5708C0.0594617 7.85043 -0.386006 6.25497 0.364642 5.00725C1.11529 3.75953 2.7778 3.33203 4.07796 4.0524L5.42445 4.79844C6.22959 4.24188 7.13184 3.80659 8.10214 3.52047V2.6087ZM10.2768 3.14572V5.21739V5.23735C8.46819 5.36939 6.84984 6.15469 5.67741 7.34793L5.34499 7.16375L5.34477 7.16411L2.99062 5.85976C2.73059 5.71569 2.39809 5.80119 2.24796 6.05073C2.09783 6.30028 2.18692 6.61937 2.44696 6.76344L3.09861 7.1245C3.09869 7.12438 3.09877 7.12427 3.09885 7.12415L4.98669 8.17013C4.20824 9.26001 3.7528 10.5791 3.7528 12.0002C3.7528 13.1321 4.04173 14.1993 4.55267 15.1375L4.33471 15.3466L4.33513 15.347L2.41297 17.1916C2.20066 17.3954 2.20066 17.7257 2.41297 17.9295C2.62529 18.1332 2.96952 18.1332 3.18184 17.9295L3.59574 17.5323C3.59562 17.5321 3.5955 17.532 3.59538 17.5318L5.14575 16.044C5.25772 16.1885 5.37554 16.3285 5.49887 16.4638L6.16926 17.1072C7.2845 18.0434 8.70912 18.6486 10.2767 18.763V18.7826H10.2768V21.3913C10.2768 21.6795 10.5202 21.913 10.8205 21.913C11.1207 21.913 11.3641 21.6795 11.3641 21.3913V20.8547C11.3641 20.8547 11.3641 20.8547 11.364 20.8547V18.763C13.3735 18.6164 15.1481 17.6633 16.3372 16.2403L16.655 16.4164L16.6552 16.4161L19.0094 17.7204C19.2694 17.8645 19.6019 17.779 19.752 17.5294C19.9022 17.2799 19.8131 16.9608 19.553 16.8167L18.8358 16.4193C18.8357 16.4194 18.8357 16.4195 18.8356 16.4196L16.952 15.376C17.5475 14.3819 17.8882 13.2292 17.8882 12.0002C17.8882 10.6413 17.4718 9.37578 16.7547 8.31468L17.1991 8.06849L17.1989 8.06823L19.553 6.76388C19.8131 6.6198 19.9022 6.30071 19.752 6.05117C19.6019 5.80163 19.2694 5.71613 19.0094 5.8602L18.003 6.41779C18.0031 6.41787 18.0031 6.41795 18.0032 6.41803L16.1843 7.42581C16.1523 7.44356 16.1228 7.46399 16.0961 7.48661C14.9146 6.21571 13.2419 5.37444 11.3641 5.23735V5.21739V3.14572V2.6087C11.3641 2.32055 11.1207 2.08696 10.8205 2.08696C10.5202 2.08696 10.2768 2.32055 10.2768 2.6087V3.14572Z" fill="black"/>
</svg>