<svg xmlns="http://www.w3.org/2000/svg" width="32" height="32" viewBox="0 0 32 32" fill="none">
    <path fill-rule="evenodd" clip-rule="evenodd" d="M0 25.0865C0 22.0319 2.49163 19.5557 5.56522 19.5557H26.4348C29.5084 19.5557 32 22.0319 32 25.0865V31.9999H29.2174V25.0865C29.2174 23.5592 27.9716 22.3211 26.4348 22.3211H5.56522C4.02843 22.3211 2.78261 23.5592 2.78261 25.0865V31.9999H0V25.0865Z" fill="black"/>
    <path fill-rule="evenodd" clip-rule="evenodd" d="M15.5556 12.3635C18.211 12.3635 20.3636 10.2108 20.3636 7.55545C20.3636 4.90006 18.211 2.74744 15.5556 2.74744C12.9001 2.74744 10.7475 4.90006 10.7475 7.55545C10.7475 10.2108 12.9001 12.3635 15.5556 12.3635ZM15.5556 15.1109C19.7284 15.1109 23.1111 11.7282 23.1111 7.55545C23.1111 3.38269 19.7284 0 15.5556 0C11.3827 0 8 3.38269 8 7.55545C8 11.7282 11.3827 15.1109 15.5556 15.1109Z" fill="black"/>
</svg>