<svg xmlns="http://www.w3.org/2000/svg" width="21" height="24" viewBox="0 0 21 24" fill="none">
  <path fill-rule="evenodd" clip-rule="evenodd" d="M10.5 5.21733C6.66102 5.21733 3.92191 7.74415 3.92191 11.0225V15.9954C3.92191 16.5044 3.79503 17.0057 3.55226 17.4559L2.83688 18.7825H18.1631L17.4477 17.4559C17.4477 17.4559 17.4477 17.4559 17.4477 17.4559C17.205 17.0057 17.0781 16.5044 17.0781 15.9954V11.0225C17.0781 7.74415 14.339 5.21733 10.5 5.21733ZM19.3347 16.4822L20.8753 19.3392C21.25 20.0341 20.735 20.8695 19.9318 20.8695H1.06817C0.265028 20.8695 -0.250042 20.0341 0.124673 19.3392L1.66526 16.4822C1.74618 16.3321 1.78847 16.165 1.78847 15.9954V11.0225C1.78847 6.39987 5.68876 3.13037 10.5 3.13037C15.3112 3.13037 19.2115 6.39987 19.2115 11.0225V15.9954C19.2115 16.165 19.2538 16.3321 19.3347 16.4822Z" fill="black"/>
  <path fill-rule="evenodd" clip-rule="evenodd" d="M10.5001 2.08696C9.79026 2.08696 8.90004 2.8351 8.90004 4.17391H6.7666C6.7666 2.05494 8.26431 0 10.5001 0C12.7359 0 14.2336 2.05494 14.2336 4.17391H12.1002C12.1002 2.8351 11.21 2.08696 10.5001 2.08696Z" fill="black"/>
  <path fill-rule="evenodd" clip-rule="evenodd" d="M7.83363 19.8262C7.83363 20.8337 8.8674 21.9131 10.5004 21.9131C12.1334 21.9131 13.1672 20.8337 13.1672 19.8262H15.3007C15.3007 22.2765 12.9913 24.0001 10.5004 24.0001C8.00952 24.0001 5.7002 22.2765 5.7002 19.8262H7.83363Z" fill="black"/>
</svg>